<?xml version="1.0" encoding="UTF-8"?><svg id="Ebene_2" xmlns="http://www.w3.org/2000/svg" viewBox="0 0 156.29 142.69"><defs><style>.cls-1{fill:#7a6f68;}.cls-1,.cls-2,.cls-3,.cls-4,.cls-5,.cls-6,.cls-7,.cls-8,.cls-9,.cls-10,.cls-11,.cls-12,.cls-13,.cls-14,.cls-15,.cls-16,.cls-17{stroke-width:0px;}.cls-2{fill:#817f7e;}.cls-3{fill:#7c7467;}.cls-4{fill:#474245;}.cls-5{fill:#565049;}.cls-6{fill:#464951;}.cls-7{fill:#c9c3b7;}.cls-8{fill:#d5c2a0;}.cls-9{fill:#bea993;}.cls-10{fill:#aa9372;}.cls-11{fill:#a7855e;}.cls-12{fill:#a59a83;}.cls-13{fill:#98754e;}.cls-14{fill:#a09290;}.cls-15{fill:#856345;}.cls-16{fill:#f0e7d5;}.cls-17{fill:#67696f;}</style></defs><g id="Ebene_1-2"><path class="cls-14" d="M105.06,138.59c-.68,1.21-.92,1.27-1.28,2.31-.02.06-1.31.2,0,.51-.03.01-.48.5-.51.51-2.98.3-5.97.34-8.97.51-.76.04-1.2.23-1.79.26l-5.12-.51c14.36-1.22,5.6-3.33-2.31-4.1.02-.25-.02-.52,0-.77l19.98,1.28Z"/><path class="cls-8" d="M58.17,138.08c.35,1.88-1.54.36-1.54,1.54-8.24.28-16.46.79-24.72.51-6.01-.21-12.46-1.33-18.32-1.54.19-.96-1.29-.29-1.67-.51-.29-.16-.03-.91-.13-1.02,3.49-.94,7.03-3.27,10.63-3.84,9.72-1.54,24.12,2.69,34.33,3.33l1.41,1.54Z"/><path class="cls-3" d="M13.6,138.59c5.86.21,12.3,1.33,18.32,1.54,8.26.28,16.48-.23,24.72-.51,5.02-.17,11.32-1.19,8.58,1.54-16.97.25-33.94.82-50.85-1.02-.54-.06-1.64-.56-2.31-.51-1.66-1.79.33-1.07,1.54-1.02Z"/><path class="cls-16" d="M14.37,140.13v.51c-1.27-.3-3.56-.43-2.31-1.02.67-.04,1.76.45,2.31.51Z"/><path class="cls-1" d="M87.38,142.18c-.88.07-1.72-.02-2.56,0-.2-1.39.16-2.74.26-4.1,7.91.77,16.66,2.88,2.31,4.1Z"/><path class="cls-1" d="M77.9,138.34c.06.93-.12,2.24,0,2.82-7.53-.19-7.15-2.57,0-2.82Z"/><path class="cls-6" d="M82.26,1.02c4.4,1.74,3.85.64,4.23.77.87.3,13.91,6.08,15.63,6.92,10.83,5.29,24.75,14.11,34.07,21.78,3.97,3.27,17.59,15.63,19.34,19.47-.29,1.16.8,1.43-.51,2.31-.14-2.35-6.55-8.37-9.09-10.76C127.27,23.96,104.92,11.25,81.49,1.28c.04-.01-.11-.38.77-.26Z"/><path class="cls-15" d="M150.14,81.21c-.21,1.48-.35,3.51-.51,4.36-.01.07-.36.19-.51,1.28-.29-.05-1.53.25-5.89.26,3-2.24-3.86-.73-5.64-1.54.12-.89-.9-1.87-.77-2.18.12-.27,5.39-1.48,3.46-2.18-.63-.23-11.3,2.66-12.94,3.07l-4.36-2.05c5.16-2.9,10.13-6.17,15.5-8.71l.13-.64c-5.66,2.35-10.97,5.49-16.4,8.33-3.14-1.58-7.31-3.48-5.89-.77-.09-.04-1.47.57-1.28-.77.75-6.83,8.75-19.3,8.45-20.37-.25-.9-1.21-.11-1.54.26-.62.7-7.96,15.88-8.2,16.78-.59-.72-2.04-1.92-2.82-2.31v-.26c.49-1.1,8.44-11.92,7.81-12.3-1.08-.17-1.1.48-1.15.51-1.59.78-8.47,8.84-9.99,10.76l-5.38-3.59c.13-.66,1.02-6.2,1.02-6.53.09-4.89-3.27,5.6-3.59,6.53l-2.05-1.54c1.06-5.24,2.18-10.44,3.46-15.63-2.99,3.69-5.43,7.76-8.33,11.53-.24-.93-.92-1.62-1.54-2.31-.22-1.82-1.8-3.67-2.69-5.38-.42-.06-4.22,6.17-5,6.92-.52.49-1.21.87-1.79,1.28-.51.05-1.03-.52-1.79-.77-1.07-14.22.14-28.36,1.28-42.53l9.86.26c6.38,3.38,12.75,6.82,19.47,9.48l12.55,10.25c8.95,4.72,17.09,11.14,25.49,16.78-.01,3.77.85,7.53,1.02,11.27.21,4.37-.72,12.26.51,12.42Z"/><path class="cls-15" d="M80.46,20.24c-1.63,14.19-2.41,28.5-2.31,42.78,0,.4.1.79-.26.77l-3.07.51c-.09-.33-.19-.53-.26-.77-.45-1.64-2.35-9.4-2.56-9.86-2.33-5.04,1.25,9.97,1.28,10.89,0,.08.01.18,0,.26-.05.28-.38.4-.26.77-.12-.2-.41-.63-.77-.51-.92-2.78-2.17-5.53-3.07-8.33-.32-.98-2.25-9.88-2.82-6.66-.09.49,2,8.32,2.31,9.61l-3.33,3.07c-.69-3.73-2.19-7.34-2.56-11.14-.19-.95-2.37.51-2.43.64-.38.75,1.54,11.39,1.92,13.07l-2.31,4.1c-.39-.63-5.1-9.78-5.64-7.81-.14.52,4.25,8.53,4.87,9.61l-6.4,7.94c-1.49-2.36-2.61-5.04-2.82-5.25-2.52-2.48.82,4.69,1.54,6.02l-2.31,1.79c-3.37-5.15-7.26-9.99-10.5-15.24l-11.53-27.8c1.49-1.28,11.32-6.8,12.94-7.17,3.65-.85,2.02,1.68,4.36,1.54,1.42-.09,11.1-5.22,13.07-6.4,9.96-5.98,6.2-7.63,22.8-6.92.21.01.1.51.13.51Z"/><path class="cls-11" d="M81.49,1.28c23.43,9.97,45.78,22.68,64.43,40.22,2.54,2.39,8.96,8.41,9.09,10.76-1.13,4.48-3.46,31.63-4.1,33.18-.23.56-.89.43-1.28.13.16-.84.31-2.88.51-4.36,1.35-9.66,2.96-19.49,3.84-29.08-14.8-9.49-28.48-20.56-42.65-30.87q-12.68-6.66-25.36-13.32c-2.33,2.38-5.19-.14-6.92,0-.7.06-5.5,2.67-6.66,3.07-4.51,1.58-9.18,2.69-13.58,4.61-5.86,2.56-14.1,7.99-19.98,11.27-.4.13-.63-.65-1.02-.51-17.58,6.32-21.19,7.91-34.97,22.42-1.28,3.1,3.96,35.87,5.64,41.63l-.77-.64c-2.47-12.56-4.26-25.28-6.4-37.91l.26-3.07C19.18,23.96,44.24,11.52,72.91,3.33c2.8-.8,5.81-1.19,8.58-2.05Z"/><path class="cls-13" d="M150.14,81.21c-1.23-.16-.31-8.06-.51-12.42-.18-3.75-1.04-7.5-1.02-11.27-8.4-5.64-16.54-12.06-25.49-16.78l-12.55-10.25c-6.72-2.65-13.09-6.09-19.47-9.48l-9.86-.26c-.11-.45-.37-.48-.77-.51-.03,0,.08-.5-.13-.51-16.6-.71-12.84.94-22.8,6.92-1.97,1.18-11.64,6.32-13.07,6.4-2.33.15-.7-2.39-4.36-1.54-1.61.38-11.45,5.89-12.94,7.17-.23.19-.76.2-.77.51-1.33,1.61-5.82,10.64-7.3,11.02-1.21.31.3-1.79-.51-1.79-.75,0-10.8,8.27-11.4,9.61-2.52,5.62.17,22.43,1.02,29.2,7.81,3.75,16.58,1.55,24.34-1.15.17.24.34.53.51.77-6.05,2.14-12.06,4.29-18.45,5.12-2.13-.5-4.16-.61-6.15-1.54-1.67-5.76-6.92-38.53-5.64-41.63,13.77-14.5,17.39-16.1,34.97-22.42.39-.14.62.64,1.02.51,5.88-3.28,14.12-8.71,19.98-11.27,4.4-1.92,9.07-3.03,13.58-4.61,1.16-.41,5.96-3.02,6.66-3.07,1.73-.14,4.59,2.38,6.92,0q12.68,6.66,25.36,13.32c14.17,10.31,27.86,21.38,42.65,30.87-.89,9.58-2.49,19.42-3.84,29.08Z"/><path class="cls-15" d="M43.83,81.21l-8.45,5.12c-7.61-8.13-7.63-11.17-8.33-11.27-2.64-.37,5.04,10.35,5.51,11.02-7.76,2.7-16.53,4.9-24.34,1.15-.85-6.78-3.55-23.58-1.02-29.2.6-1.33,10.65-9.61,11.4-9.61.81,0-.7,2.1.51,1.79,1.48-.38,5.98-9.41,7.3-11.02,3.14,6.85,7.85,21.64,10.5,27.03,1.63,3.3,6.79,9.41,6.66,9.99-.25,1.13-2.56-1.31.26,5Z"/><path class="cls-9" d="M36.91,92.23c-6.2-4.14-5.27-1.93-11.14-1.02-3.19.49-6.41.8-9.61,1.28-1.69-.36-1.46-.49-1.54-.51,6.38-.83,12.4-2.98,18.45-5.12,1.27,1.77,2.99,3.37,3.84,5.38Z"/><path class="cls-10" d="M136.31,89.66c1.81-3.06-1.48-.96-2.82-2.31,3.21-.16,6.52-.25,9.73-.26,4.36,0,5.6-.3,5.89-.26,1.53.24-.02,2.34-.9,2.56-.58.15-9.65.12-11.91.26Z"/><path class="cls-10" d="M70.22,66.35c-4.18-4.71-2.58,2.04-2.05,4.61-1.4-2.14-1.83-5.91-2.82-5.89.77-1.27.27-.85,0-2.31l3.33-3.07c.51,2.12,1.67,4.88,1.54,6.66Z"/><path class="cls-9" d="M133.49,87.36c1.34,1.34,4.63-.75,2.82,2.31-2.19.14-4.74.02-6.92.26l1.79-2.31c.34-.02.68.02,1.02,0,.07,0,.24-.21,1.28-.26Z"/><path class="cls-8" d="M131.19,87.61l-1.79,2.31c-.92.1-1.93.13-2.82.26l-3.84-2.05c2.99-.43,5.56-.34,8.45-.51Z"/><path class="cls-6" d="M82.26,1.02c-.88-.12-.73.24-.77.26-2.77.86-5.78,1.25-8.58,2.05C44.24,11.52,19.18,23.96,1.56,48.8l-.26,3.07c2.15,12.63,3.94,25.35,6.4,37.91l.77.64c1.99.92,4.01,1.03,6.15,1.54.08.02-.15.15,1.54.51,8.13,1.74,16.52,2.49,24.72,3.84l.38-.38c-1.49-1.08-2.86-2.72-4.36-3.71-.85-2.01-2.57-3.61-3.84-5.38-.17-.24-.34-.52-.51-.77-.47-.66-8.14-11.39-5.51-11.02.7.1.71,3.14,8.33,11.27.52.55,1,1.01,1.54,1.54,1.89,1.85,3.55,3.86,5.76,5.38,17.83,9.4,15.23,11.1,2.95-4.87.31.34,3.79,2.79,6.92,6.02,1.6,1.66,2.49,4.05,4.48,5.51,2.51,1.83,2.94,1.17,3.07,1.28,10.93,8.43,3.46,4.79-3.33,0l-.26.77c-2.54-2.08-5.94-2.82-8.71-4.36-.16-.09-.09-.52-.51-.77-1.96-1.13-4.32-1.92-6.15-3.33-2.52-1.94-3-4.27-4.23-3.71,7.21,13.95,24.39,11.69,36.12,25.87,4.91,5.94,6.15,10.53,6.92,18.06-2.72.11-.84-7.18-3.33-6.15-1.29-5.2-3.63-9.2-7.56-12.81-5.8-5.32-20.74-12.85-28.44-16.65-3.82.32-33.98-4.84-34.46-6.53-.03-.1,1.06-1.53,1.02-1.79-.04-.31-.92.44-2.05-5.64C4.28,79.51-.35,51.29.02,49.06c2.31-6.46,18.04-20.66,23.7-24.98C38.02,13.17,63.66,3.6,81.36,0c.27.12.83,1,.9,1.02Z"/><path class="cls-2" d="M51,91.2c1.07,1.04,1.96,2.32,3.07,3.33,1.88,3.12,3.32,3.49,5.64,5.64,4.84,4.48,7.76,6.97,13.19,10.76.31.22.37-.27.38-.26.11.07.41.18.51.26.13.09.35.21.51.26,4.08,4.15,5.31,12.21,7.69,9.61,1.36-1.49,1.39-15.64,1.28-18.45-.14-.21-.51-1.33-.51-1.41-.15-3.16-.31-6.33-.51-9.48h.26c.06,2.18.21,6.14,1.28,7.81-1.02.53-.04,3.19,0,4.36.15,4.57-.49,9.13-.38,13.71,6.82-.73,9.87-6.22,13.71-11.14.67-.86,10.95-16.32,11.27-13.07-5.11,7.15-10.3,14.19-16.01,20.88-.06.07-.76-.33-1.67.9-9.58,10.98-7.91,24.49-8.71,25.62-.15.21-1.64.21-1.79,0-.2-.28-.06-4.83-.26-6.79-.77-7.54-2.01-12.13-6.92-18.06-11.73-14.18-28.91-11.92-36.12-25.87,1.23-.56,1.71,1.77,4.23,3.71,1.83,1.41,4.19,2.2,6.15,3.33.43.25.35.68.51.77,2.77,1.54,6.17,2.28,8.71,4.36l.26-.77c6.79,4.79,14.26,8.43,3.33,0-.14-.11-.57.55-3.07-1.28-1.99-1.46-2.88-3.85-4.48-5.51-3.12-3.23-6.61-5.68-6.92-6.02-.02-.03-.24-.06-.51-.51-.06-.09-.46-1.7-.51-2.05,1.83,1.67,4.54,3.58,6.4,5.38Z"/><path class="cls-6" d="M73.03,70.45c.66,1.44,1.43,2.92,2.05,4.36-.05,4.16,1.87,7.74,3.07,11.53,1.23,3.87,2.69,7.92,3.46,11.78-.22-.47-.53-.91-.9-1.28-1.11-1.96-2.5-3.59-3.84-5.38.73-1.83-3.56-4.12-3.33-6.15.06.06.52-.26,1.28.38.37.31,1.92,3.37,2.31,3.84.36.44.54.54.51,0-4.66-6.99-3.57-13.94-5.89-20.37.92-.33.6-.19,1.28,1.28Z"/><path class="cls-4" d="M81.23,20.75c-1.14,14.17-2.35,28.3-1.28,42.53-.34-.11-1.37-.27-1.79-.26-.1-14.29.67-28.6,2.31-42.78.4.03.66.06.77.51Z"/><path class="cls-6" d="M82.77,100.94c0,.07.37,1.2.51,1.41.11,2.81.08,16.95-1.28,18.45-2.38,2.6-3.6-5.45-7.69-9.61,0-1.74.46.3,1.79.51,4.79,7.31,5,10.98,5.64,1.67.15-2.22.13-7.81-.26-9.86,1.69.57-.85-3.66,1.28-2.56Z"/><path class="cls-6" d="M85.07,76.34c-1.38,4.09-.71,15.63-.26,20.37.15,1.6,1.46,4.96,1.54,6.4.14,2.46-1.2,5.72-.51,8.07.04.13-.02.35,0,.51-.08.15-.47,1.11-.51,1.28-2.05-.72-.2-4.99-.51-9.86-.23-3.49-1.95-6.85-1.54-15.11.01-.23.76-.02.77-.26.19-4.07-.68-10.52,1.02-11.4Z"/><path class="cls-7" d="M65.35,65.07c.99-.02,1.42,3.75,2.82,5.89,1.04,5.03,3.68,9.64,5.12,14.35-4.36-4.37-9.17-18.26-8.97-19.6.07-.48.99-.59,1.02-.64Z"/><path class="cls-16" d="M77.9,63.79c.85,6.11,1.09,12.33,1.79,18.45h-.51c-.33-2.73-3.33-14.16-4.36-17.93l3.07-.51Z"/><path class="cls-17" d="M96.6,89.15c.84-1.26,1.78-2.56,2.56-3.84,1.1-.19-.39.9-.51,1.15-2.2,4.71-3.92,9.74-5.38,14.73-.03.05.12.82-.77.77,1.33-3.64,1.34-7.55,2.82-11.14.31-2.59.09-5.23.26-7.81.74-1.88,1.27-3.94,1.79-5.89.56-.41,2.07-6.74,3.07-4.23.35.89-5.25,10.79-4.74,18.32.11-.75.66-1.37.9-2.05Z"/><path class="cls-17" d="M106.85,90.18c-.5.7-1.49,1.26-.64,1.28,1.84-.86,3.73-1.86,5.64-2.56,1.99-.74,5.35-1.23,5.51-2.05.93-.2,1.88-.29,2.82-.51,2.44.55-6.69,2.78-10.12,3.84-.16.39-.69,1.12-1.02,1.28-4.07,2.03-7.88,4.33-11.91,6.4,2.52-2.33,5.61-3.61,8.2-5.76l-.51-.13c1.06-.98,6.11-7.42,5.89-9.22.49-.85.82-1.74,1.28-2.56.38-.68,1-1.47,1.54-2.05l.51.13c-1.92,4.95-4.24,7.8-7.17,11.91Z"/><path class="cls-16" d="M98.65,71.99c-.52,1.66-.83,3.44-1.28,5.12-.52,1.95-1.05,4.01-1.79,5.89.14-2.25-.2-4.86,0-7.04.17-1.78,1-3.73,1.28-5.25l1.79,1.28Z"/><path class="cls-10" d="M122.99,82.23l4.36,2.05c-1.98.5-3.9,1.3-5.89,1.79l-2.05-1.79c1.2-.66,2.39-1.38,3.59-2.05Z"/><path class="cls-12" d="M63.55,69.94l-1.02,3.59c-.93-1.37-1.69-2.71-2.56-4.1l2.31-4.1c.32,1.38.88,3.19,1.28,4.61Z"/><path class="cls-10" d="M96.35,66.09c-.34,1.27-.73,2.57-1.02,3.84l-3.84-2.56c1.01-1.42,1.92-2.29,2.31-2.82l2.56,1.54Z"/><path class="cls-2" d="M97.11,97.86c-3.37,3.12-3,4.17-5.12,7.69l-1.54.26c.79-1.28,1.53-2.4,2.05-3.84.89.05.74-.72.77-.77,3.96-5.92,8.18-6.13,11.53-9.22l.51.13c-2.59,2.15-5.68,3.43-8.2,5.76Z"/><path class="cls-5" d="M143.23,87.1c-3.21,0-6.53.1-9.73.26-1.04.05-1.22.25-1.28.26.63-1.41,5.08.12,5.38-2.05,1.77.81,8.64-.71,5.64,1.54Z"/><path class="cls-16" d="M119.4,84.28l2.05,1.79c-.42.1-.88.16-1.28.26-.94.23-1.89.31-2.82.51-1.7.36-3.38,1.04-5.12,1.15-.13-.38,6.55-3.37,7.17-3.71Z"/><path class="cls-6" d="M85.07,137.31c-.02.25.02.51,0,.77-.1,1.36-.46,2.71-.26,4.1-1.76.05-6.42,1.29-6.92-1.02-.12-.58.06-1.89,0-2.82-.01-.17.01-.34,0-.51-.26-3.78-.33-6.43-1.28-10.25,2.49-1.03.61,6.26,3.33,6.15.2,1.96.06,6.51.26,6.79.15.21,1.64.21,1.79,0,.8-1.13-.87-14.64,8.71-25.62.91-1.23,1.6-.82,1.67-.9,5.71-6.68,10.9-13.72,16.01-20.88-.32-3.26-10.6,12.2-11.27,13.07-3.84,4.93-6.89,10.41-13.71,11.14-.1-4.57.54-9.13.38-13.71-.04-1.16-1.02-3.83,0-4.36-1.07-1.67-1.22-5.63-1.28-7.81-.11-4.24.87-8.58-.13-12.81-1.59,2.94-.38,8.89-.13,12.81.2,3.15.36,6.32.51,9.48-2.13-1.1.41,3.13-1.28,2.56-1.13-5.99-6.41-10.12-9.48-14.22-2.33-3.11-10.17-13.5-11.27-15.24-.56-.89-1.01-1.9-1.54-2.82-.62-1.08-5.01-9.09-4.87-9.61.54-1.97,5.24,7.19,5.64,7.81.87,1.39,1.63,2.73,2.56,4.1.44.65,5.18,7.58,5.38,7.04-2.1-3.18-3.31-6.95-4.36-10.63-.4-1.42-.96-3.23-1.28-4.61-.39-1.68-2.3-12.31-1.92-13.07.06-.13,2.24-1.59,2.43-.64.37,3.81,1.87,7.41,2.56,11.14.27,1.46.77,1.04,0,2.31-.03.05-.95.16-1.02.64-.2,1.34,4.6,15.23,8.97,19.6.04.04.21-.04.26,0-.23,2.03,4.06,4.32,3.33,6.15-2.65-3.52-5.69-7-8.58-10.25l-.13.38c4.49,4.82,7.95,10.52,12.55,15.24.38.67,1.86,4.6,1.54,1.15-.1-1.07-1.56-2.9-.77-5.12-1.26-3.41-1.38-7.05-1.79-10.63-.7-6.11-.94-12.34-1.79-18.45.36.02.26-.37.26-.77.42-.02,1.45.14,1.79.26.76.25,1.28.81,1.79.77.16,1.8.36,3.56.26,5.38-.11,1.85-1.55,8.49-.38,8.45,2.6-4.95,6.75-8.68,10.12-13.07.33-.43.69-.85,1.02-1.28,2.9-3.77,5.33-7.84,8.33-11.53-1.28,5.19-2.4,10.39-3.46,15.63-.03.16-.34.73-.77,3.07-.28,1.52-1.11,3.47-1.28,5.25-.2,2.18.14,4.8,0,7.04-.17,2.58.05,5.23-.26,7.81-1.48,3.59-1.49,7.5-2.82,11.14-.52,1.44-1.26,2.56-2.05,3.84-2.18,3.51-4.01,4.71-4.61,5.89-.02-.16.04-.38,0-.51,7.08-10.32,5.97-12.78,7.17-23.82.26-.04.92.12,1.02-.13.15-.35.58-7.31.51-7.69-.11-.64-.47-.08-1.02-.9.28-2.99,1.12-5.81,1.79-8.71.3-1.27.69-2.58,1.02-3.84.24-.89,3-9.23,2.43-9.48-1.61,2.64-3.17,5.46-5,7.94-.38.52-1.3,1.39-2.31,2.82-1.66,2.35-5.54,6.39-6.4,8.97-1.71.88-.83,7.33-1.02,11.4-.01.23-.76.02-.77.26-.41,8.27,1.31,11.63,1.54,15.11.32,4.87-1.54,9.14.51,9.86-.91,3.23.68,1.65,2.31-.13,2.21-2.42,3.47-5.84,4.36-7.3,2.13-3.51,1.75-4.56,5.12-7.69,4.03-2.08,7.85-4.38,11.91-6.4.33-.17.86-.89,1.02-1.28,3.43-1.06,12.56-3.29,10.12-3.84.4-.1.86-.15,1.28-.26,1.99-.5,3.91-1.3,5.89-1.79,1.64-.41,12.31-3.3,12.94-3.07,1.93.7-3.34,1.9-3.46,2.18-.13.31.89,1.28.77,2.18-.3,2.17-4.75.64-5.38,2.05-.34.02-.69-.02-1.02,0-2.89.17-5.47.09-8.45.51-4.48.64-8.75,2.16-12.94,3.84-.58.35-.3,1.25-.64,1.67-9.02,10.99-2.73,3.43,4.23.38,3.29-1.44,9.66-3.32,13.19-3.84.89-.13,1.89-.15,2.82-.26,2.18-.24,4.72-.12,6.92-.26,2.26-.14,11.33-.11,11.91-.26.87-.23,2.43-2.32.9-2.56.16-1.09.5-1.21.51-1.28.39.3,1.05.43,1.28-.13.64-1.54,2.97-28.69,4.1-33.18,1.31-.88.23-1.15.51-2.31.54,1.19.76,2.16.77,3.46.04,4.44-3.5,23.27-3.59,30.49-.35,1.62-2.5,6.41-4.23,6.79-23.59.65-35.09-.52-50.85,18.57-7.38,8.94-11.56,16.24-12.55,28.05Z"/><path class="cls-16" d="M103.9,95.04l.38.13c-4.47,4.71-7.74,10.49-11.91,15.5,1.23-9.36,3.51-11.52,11.53-15.63Z"/><path class="cls-17" d="M91.99,105.55c-.89,1.46-2.15,4.88-4.36,7.3-1.62,1.78-3.21,3.36-2.31.13.05-.17.43-1.13.51-1.28.6-1.18,2.44-2.38,4.61-5.89l1.54-.26Z"/><path class="cls-17" d="M79.69,82.23c.41,3.58.53,7.22,1.79,10.63-.79,2.22.67,4.06.77,5.12.32,3.45-1.16-.48-1.54-1.15.36.37.68.81.9,1.28-.77-3.87-2.23-7.91-3.46-11.78l.26-.26c.15.52.39,1.7,1.02,1.92-.59-2.91-.22-5.43-.26-5.76h.51Z"/><path class="cls-15" d="M96.35,66.09l-2.56-1.54c1.82-2.49,3.39-5.31,5-7.94.57.25-2.2,8.59-2.43,9.48Z"/><path class="cls-16" d="M62.53,73.52l1.02-3.59c1.04,3.68,2.26,7.45,4.36,10.63-.2.53-4.94-6.4-5.38-7.04Z"/><path class="cls-7" d="M82.51,91.46h-.26c-.25-3.92-1.46-9.87.13-12.81,1,4.23.02,8.56.13,12.81Z"/><path class="cls-17" d="M76.88,91.46c1.34,1.79,2.74,3.42,3.84,5.38-4.6-4.72-8.06-10.42-12.55-15.24l.13-.38c2.89,3.24,5.94,6.73,8.58,10.25Z"/><path class="cls-6" d="M93.02,87.36c.31-2.85.17-5.85.51-8.71.56.82.91.26,1.02.9.07.38-.36,7.33-.51,7.69-.11.25-.77.09-1.02.13Z"/><path class="cls-10" d="M99.68,69.17c-.33.94-.73,1.88-1.02,2.82l-1.79-1.28c.43-2.35.74-2.92.77-3.07l2.05,1.54Z"/><path class="cls-6" d="M110.95,73.78v.26c-.46-.23-1.02-.38-1.41-.77-.27.04-1.75,2.32-2.18,2.82-5.22,6.12-9.23,13.27-11.78,20.88,1.63-1.19,3.23-2.47,5.25-2.95,4.48-5.48,6.05-4.67,9.86-11.27.22,1.81-4.83,8.24-5.89,9.22-3.34,3.09-7.57,3.3-11.53,9.22,1.46-4.99,3.18-10.02,5.38-14.73.12-.26,1.61-1.34.51-1.15,2.11-3.46,4.23-7.01,6.66-10.25.57-.76,1.2-1.55,1.79-2.31,1.52-1.92,8.4-9.98,9.99-10.76-1.78,3.65-9.79,11.29-6.66,11.78Z"/><path class="cls-6" d="M115.05,79.67c-1.6-.43-1.02,1.69-1.28,2.18-1.12,2.08-2.66,4.03-4.1,5.89-.23.3.27.37.26.38-.73.92-1.9,1.96-3.07,2.05,2.94-4.11,5.25-6.96,7.17-11.91l-.51-.13c-.15-1.16.19-1.56.26-1.79.24-.9,7.58-16.08,8.2-16.78.33-.37,1.28-1.16,1.54-.26.3,1.06-7.7,13.54-8.45,20.37Z"/><path class="cls-6" d="M122.99,82.23c-1.2.67-2.39,1.39-3.59,2.05-.63.35-7.3,3.33-7.17,3.71,1.75-.11,3.42-.79,5.12-1.15-.16.82-3.52,1.31-5.51,2.05-1.9.7-3.8,1.7-5.64,2.56-.85-.02.14-.58.64-1.28,1.17-.09,2.34-1.13,3.07-2.05,1.52-.74,2.7-2.22,4.1-3.07,1.2-.73,2.61-1.15,3.84-1.79,1.42-.74,2.93-1.3,4.36-2.05,5.42-2.84,10.73-5.98,16.4-8.33l-.13.64c-5.37,2.54-10.33,5.81-15.5,8.71Z"/><path class="cls-6" d="M102.24,69.17c-.11.55-.71,2.56-1.02,3.84-.27,1.11-1.58,4.08-2.05,5.76-.81,2.89-1.87,8.42-2.56,10.38-.24.68-.78,1.3-.9,2.05-.51-7.52,5.09-17.43,4.74-18.32-1-2.51-2.51,3.82-3.07,4.23.45-1.68.76-3.46,1.28-5.12.29-.94.7-1.88,1.02-2.82.32-.93,3.67-11.42,3.59-6.53,0,.33-.89,5.88-1.02,6.53Z"/><path class="cls-6" d="M115.05,79.67c-.19,1.34,1.19.73,1.28.77.06.03-.03.53,1.28.64.12.17-.61.94-.77,1.15-.65.85-2.41,1.68-2.82,2.82-1.4.85-2.58,2.33-4.1,3.07.01-.02-.49-.09-.26-.38,1.44-1.86,2.98-3.82,4.1-5.89.26-.49-.31-2.61,1.28-2.18Z"/><path class="cls-6" d="M110.95,73.78c-3.13-.5,4.88-8.13,6.66-11.78.06-.03.07-.68,1.15-.51.63.37-7.32,11.19-7.81,12.3Z"/><path class="cls-10" d="M122.22,81.21c-1.42.75-2.94,1.31-4.36,2.05l-1.02-1.02c.16-.21.89-.99.77-1.15-1.31-.11-1.22-.61-1.28-.64-1.42-2.71,2.75-.81,5.89.77Z"/><path class="cls-6" d="M49.21,81.72c.98,1.5,2.12,2.88,3.07,4.36,3.39,5.24,3.15,7.66,7.94,12.81-1.15.22.26.7-.51,1.28-2.32-2.14-3.76-2.52-5.64-5.64-1.45-2.41-4.69-10.46-7.43-13.71-2.25-2.67,3.17,7.28,4.36,10.38-1.86-1.8-4.58-3.71-6.4-5.38-2.52-2.3.79-.57,1.02-1.67.04-.17-1.58-2.48-1.79-2.95-2.82-6.31-.51-3.87-.26-5,.13-.59-5.03-6.69-6.66-9.99-2.66-5.38-7.36-20.17-10.5-27.03,0-.31.54-.32.77-.51l11.53,27.8c3.24,5.25,7.13,10.09,10.5,15.24Z"/><path class="cls-6" d="M52.79,79.16c4.46,7.05,9.98,13.43,14.86,20.24,2.89,4.04,5.73,8.14,8.45,12.3-1.33-.21-1.79-2.26-1.79-.51-.16-.04-.38-.16-.51-.26-4.02-5.91-7.87-12.01-12.04-17.8-2.57-3.57-6.04-6.68-8.45-10.38-.48-.74-1.45-2.19-1.79-2.82-.72-1.33-4.05-8.5-1.54-6.02.21.21,1.32,2.89,2.82,5.25Z"/><path class="cls-6" d="M74.83,64.3c1.03,3.77,4.03,15.21,4.36,17.93.04.34-.33,2.85.26,5.76-.63-.23-.87-1.4-1.02-1.92-.86-2.98-.37-4.47-3.33-11.27-.62-1.43-1.39-2.92-2.05-4.36,2.07-.03-.28-2.5-.51-3.2-.59-1.76-.22-2.07-.26-2.18.35-.11.65.31.77.51,1.33,2.32,2.07,6.59,3.59,8.84-1.18-3.06-1.65-7.25-3.33-9.61.01-.08,0-.18,0-.26,1.55.23.7-.59,1.28-1.02.07.24.17.44.26.77Z"/><path class="cls-6" d="M72.26,65.07c.03.1-.33.42.26,2.18.24.71,2.58,3.17.51,3.2-.68-1.47-.36-1.61-1.28-1.28-.34-.94.14-.92-1.54-2.82.13-1.78-1.03-4.54-1.54-6.66-.31-1.28-2.39-9.12-2.31-9.61.56-3.22,2.5,5.68,2.82,6.66.9,2.8,2.16,5.55,3.07,8.33Z"/><path class="cls-12" d="M53.31,82.75l-1.02,3.33c-.96-1.48-2.1-2.86-3.07-4.36l2.31-1.79c.34.63,1.31,2.07,1.79,2.82Z"/><path class="cls-6" d="M74.57,63.53c-.58.44.27,1.25-1.28,1.02-.03-.92-3.61-15.92-1.28-10.89.21.46,2.11,8.22,2.56,9.86Z"/><path class="cls-2" d="M73.03,65.58c-.12-.37.21-.49.26-.77,1.68,2.36,2.15,6.55,3.33,9.61-1.51-2.25-2.26-6.52-3.59-8.84Z"/><path class="cls-6" d="M60.22,98.89c3.04,3.27,9.55,8.32,13.07,11.78-.02-.01-.07.47-.38.26-5.43-3.79-8.35-6.28-13.19-10.76.77-.58-.63-1.07.51-1.28Z"/><path class="cls-16" d="M54.08,94.53c-1.12-1.01-2-2.29-3.07-3.33-1.18-3.1-6.61-13.05-4.36-10.38,2.74,3.25,5.98,11.29,7.43,13.71Z"/><path class="cls-16" d="M78.41,86.08l-.26.26c-1.2-3.79-3.13-7.37-3.07-11.53,2.96,6.8,2.47,8.29,3.33,11.27Z"/><path class="cls-7" d="M117.87,83.26c-1.23.64-2.64,1.07-3.84,1.79.41-1.14,2.17-1.97,2.82-2.82l1.02,1.02Z"/></g></svg>