<?xml version="1.0" encoding="UTF-8"?><svg id="Ebene_2" xmlns="http://www.w3.org/2000/svg" viewBox="0 0 60.69 86.93"><defs><style>.cls-1{fill:#f2e6dc;}.cls-1,.cls-2,.cls-3,.cls-4,.cls-5,.cls-6,.cls-7,.cls-8,.cls-9,.cls-10,.cls-11,.cls-12,.cls-13,.cls-14,.cls-15,.cls-16,.cls-17{stroke-width:0px;}.cls-2{fill:#5d4c33;}.cls-3{fill:#483725;}.cls-4{fill:#2b2018;}.cls-5{fill:#815f37;}.cls-6{fill:#c6b6a2;}.cls-7{fill:#d8cdca;}.cls-8{fill:#dcdbd2;}.cls-9{fill:#d9dbde;}.cls-10{fill:#afa691;}.cls-11{fill:#c2c2c1;}.cls-12{fill:#91815b;}.cls-13{fill:#7e684d;}.cls-14{fill:#7e6f48;}.cls-15{fill:#e4cdb8;}.cls-16{fill:#fcfcfc;}.cls-17{fill:#060606;}</style></defs><g id="Ebene_1-2"><path class="cls-16" d="M.7,35.6c-.03.59-.04,1.52,0,2.09-1.01-.3-.85-1.67,0-2.09Z"/><path class="cls-3" d="M31.62,2.24c1.72,2.24,2.3,3.14,2.67,6.1.91,7.29-.12,30.31-.46,39.06-.3.38-.8.23-1.16.41-.83-3,.27-7.63-3.02-9.18-.53-7.95-.81-21.42.23-29.12.76-2.35.78-4.95,1.28-7.27.13,0,.15.24.46,0Z"/><path class="cls-2" d="M26.04,4.22c.63.15,1.03.05.93.35-.59,1.38-1.13,9.04-.93,9.82,0,.02.16.17.23.29-.13.27-.22-.4-.46.17.41.87-.07,6.79.12,7.09.11.18.33-.13.46-.06-.15,3.3-.41,9.38.23,12.44-.51,1.72.37,5.28.46,7.56-.52.15-1.13.25-1.51.7-.95-.92-3.02-6.5-3.25-6.8-.13-.17-.21.03-.35.06-.83-6.12-.68-8.35-.93-14.01-.1-2.25-.62-4.48-.58-6.74,1.06-4.25,2.51-7.5,5-11.1.12.12.42.19.58.23Z"/><path class="cls-17" d="M4.3,27.81c.03.46.24.66.12,1.16,0,.02-.05-.06-.23.35-1.56,3.46-2.16,3-1.63,8.49.2,2.1.87,6.36,1.28,8.49-.24,3.41,1.02,6.67,2.32,9.76,2.23,5.31,3.56,8.19,8.31,11.62,1.09.79,2.45,1.3,3.55,2.09.98.71,2.34,1.97,3.14,2.91-.12.17-.11.33-.12.35-.63.83-1.39,1.57-1.98,2.44-.04-.33-.4-2.5-.46-2.62-1.95-.79-5.39-4.37-6.97-1.57,1.08-3.03-3.14-4.97-4.18-7.15-.31-.64-.92-3.62-1.16-3.84-.36-.33-1.53.03-1.98-.46.07-.59,1.12-.51,1.16-1.05.02-.23-1.85-3.58-1.86-4.3-.3-.28-.94,1.37-1.98.29.69-2.07,1.59-.23,1.39-2.44-.13-1.42-.97-3.36-.12-3.89-.1-1.47-.47-2.93-.58-4.42-4.06-.72-.85-1.03-.7-1.63.06-.23-.85-3.62-.93-4.71-.04-.57-.03-1.51,0-2.09.1-1.96.44-3.13,1.51-4.77.79-1.2,1.92-1.17.23-1.98.73-.37,1.31-.99,1.86-1.05Z"/><path class="cls-8" d="M28.71,3.17c-.95,1.29-1.44,9.78-1.86,11.97-.12-.08-.56-.43-.58-.46-.08-.12-.23-.27-.23-.29-.2-.78.34-8.44.93-9.82.17-.4,1.83-2.72,1.74-1.39Z"/><path class="cls-16" d="M3.02,52.34c.2,2.21-.7.37-1.39,2.44-.4-.41-.64-2.05-.58-2.15.11-.2,1.56-.37,1.98-.29Z"/><path class="cls-9" d="M28.6,1.31l-2.56,2.91c-.16-.04-.46-.11-.58-.23.27-.4.8-1.39,1.05-1.63.02-.02.34-.24.46-.35.07-.06.38.22,1.39-.93,0,.01.09.04.23.23Z"/><path class="cls-17" d="M28.83.03c.17.5.99,1.12,1.16,1.39.67,1.08-.49,1.17-1.39-.12-.14-.2-.22-.22-.23-.23-.41-.77-.35-.91.46-1.05Z"/><path class="cls-8" d="M4.77,27.81s0,.33.52.46c.53.14,1.6-.06,1.92.58l-.12.23c-.5-.05-1.01,0-1.51,0-.34,0-.85.02-1.16-.12.13-.51-.08-.7-.12-1.16.07-.27.3-.05.46,0Z"/><path class="cls-16" d="M29.99,1.43c-.17-.27-.99-.9-1.16-1.39.29-.05,2.25-.07,2.32.17l-1.16,1.22Z"/><path class="cls-16" d="M26.97,2.01c-.13.1-.44.33-.46.35-.22-.11-.43-.43-.7-.46.37-1.91,1.78-2.39,1.16.12Z"/><path class="cls-16" d="M35.34,2.12c-.77-.4-1.61-.31-1.69-.35-.09-.05-.27-.66-.41-.81,1.65.14,2.48-.2,2.09,1.16Z"/><path class="cls-17" d="M7.61,65.6c.54.13.18,1.22-.46.93-.55-.25.18-1,.46-.93Z"/><path class="cls-3" d="M41.15,23.4c-.26,2.06-.54,4.11-.81,6.16,0,.05-.22-.05-.35.99-.11.85.12,1.05.12,1.1-.32,2.4-.59,4.81-.93,7.21,0,.01-.22-.04-.23.06-.07.51-.33,2.16.23,1.92-.21.46-.6,5.45-.93,6.74-1.54.1-1.16,1.92-3.14.52.3-8.57,1.55-35.02.35-41.5-.21-1.11-.67-2.13-1.16-3.14,6.45,2.22,4.5,16.38,4.42,22.09.83-.85,1.49-1.58,2.44-2.15Z"/><path class="cls-2" d="M49.99,26.07h.12c-.3.56-1.05,1.87-1.16,2.15-1.67,4.3-.48,13.94-3.84,19.18-.95,1.48-3.18,2.56-4.88,2.03.51-1.39.95-2.77,1.39-4.18.02-.08.59-1.03.7-1.45.08-.31-.12-.28-.12-.29.18-.74.36-1.45.46-2.21.29-.21.74-.65.93-.93.01-.02.17.11.35-.29.54-1.21.77-7.73,1.51-10.06.89.11,1.17-1.34,1.98-1.86,1.1-.49,1.72-1.54,2.09-1.86.12-.1.29-.25.46-.23Z"/><path class="cls-4" d="M36.15,57.81c.04.19.21.08.23.17.95,4.92.63,10.37,0,15.34-.23,1.77-2.25,12.54-3.31,13.19-.09.06-1.21.17-1.28.12-.03-2.83.13-5.66.17-8.49,1.51-3.61,2.37-7.45,2.79-11.33.17-1.52.39-8.05.58-8.6.06-.18.58-.47.81-.41Z"/><path class="cls-3" d="M33.83,49.79c1.24,2.54,1.79,5.37,2.32,8.02-.24-.06-.75.22-.81.41-.19.55-.42,7.08-.58,8.6-.42,3.88-1.28,7.72-2.79,11.33.09-5.88,0-20.57.58-24.94.12-.87.47-2.37.81-3.2.02,0,.06-.19.46-.23Z"/><path class="cls-12" d="M32.2,49.79c-.01.21.08.22.12.35-.06.04-.45.56-.58.7-1.34,1.34-4.14,6.01-1.05,6.74-.43,4.49-.62,8.99-.93,13.48-.61.62-.61,1-1.63,1.05-.05-4.07-.48-8.12-.35-12.21.06-1.99.36-4.01.58-5.99-.12-.27-1.45-.19-1.51-.76.31-.54.64-1.08.93-1.63.51-.97-.15-1.44,1.16-.58-.45.63-.3,1.6-.58,2.38.1.26,3.07-3.88,3.84-3.55Z"/><path class="cls-4" d="M24.76,68.73c.32,4.98.66,9.96.93,14.94.09.17,2.25-1.09,2.44-1.22.33-.22.57-.29.81-.7-.05.77.04,4.14-.23,4.59l-2.32.17c-1.84-.13-3.68-.34-5.52-.46v-.23c.51-.06,1.25.08,1.69,0l-.17.23c1.61.01,3.34.71,2.15-1.74.23,0,.89-.36.93-.52.06-.26-1.1-4.53-1.28-5.17-.34-3.61-1.92-7.01-1.98-10.69.83.31,1.69.63,2.56.81Z"/><path class="cls-4" d="M29.06,50.83c-.05.05-.11.11-.12.12-1.31-.86-.65-.39-1.16.58.06-.74-1.5-.96-2.44-2.38-.39-.59-1.01-2.41-1.28-3.2.63-.66,1.02-2.79,1.51-3.37.38-.44.99-.54,1.51-.7.18-.05.47-.06.58-.23.12,2.85.35,5.69.23,8.54l1.16.64Z"/><path class="cls-5" d="M48.59,83.38c-5.47,3.24-5.17,2.68-12.03,2.67,2.25-.42,3.94-1.77,5.75-3.02l6.28.35Z"/><path class="cls-4" d="M32.67,47.81c-1.45.7-1.72,1.13-1.98.41-.37-1.05-.94-7.92-1.05-9.59,3.29,1.56,2.19,6.19,3.02,9.18Z"/><path class="cls-14" d="M28.95,81.75c-.24.41-.48.48-.81.7-.36-3.44.04-6.91,0-10.35,1.02-.04,1.02-.43,1.63-1.05-.25,3.57-.57,7.13-.81,10.69Z"/><path class="cls-8" d="M27.43,36.18c-.53-.45-.68-1.2-.81-1.86-.64-3.06-.38-9.14-.23-12.44,0-.15.12-.11.12-.12.1.27.66.64.7.76.23.8.17,11.5.23,13.66Z"/><path class="cls-8" d="M31.97,51.06c-1.27,1.7-1.08,4.47-1.28,6.51-3.09-.73-.29-5.4,1.05-6.74l.23.23Z"/><path class="cls-2" d="M50.92,15.72c-.2.2-.56.39-.7.64-.71,1.26-.14,5.26.35,6.68-.44-.24-1.55-2.24-1.63-2.56-.32-1.27.26-3.14,1.05-4.18.24-.32.7-.75,1.05-.93l.23.06c-.2.06-.22.16-.35.29Z"/><path class="cls-12" d="M26.27,14.68s.47.38.58.46c-.12,2.21-.25,4.42-.35,6.63,0,0-.11-.04-.12.12-.14-.07-.35.23-.46.06-.19-.3.3-6.22-.12-7.09.25-.57.33.1.46-.17Z"/><path class="cls-12" d="M27.43,36.18c0,1.82.16,3.64.23,5.46-.11.17-.41.18-.58.23-.09-2.28-.98-5.84-.46-7.56.14.66.28,1.41.81,1.86Z"/><path class="cls-8" d="M51.15,16.31c-.25.47-.53,1.41-.58,1.92-.16,1.65.59,6.57,0,4.82-.48-1.42-1.05-5.42-.35-6.68.14-.25.5-.44.7-.64l.23.58Z"/><path class="cls-16" d="M32.2,49.79c-.77-.34-3.73,3.81-3.84,3.55.29-.78.13-1.75.58-2.38,0,0,.07-.07.12-.12.2-.21,1.83-1.19,2.15-1.28,1.58-.45,1,0,.99.23Z"/><path class="cls-1" d="M52.31,15.03c-.19.07-.57-.02-1.28.35-.35.18-.8.61-1.05.93-.87-1.28,1.1-2.5,2.32-2.32.44.06,1.15.63,0,1.05Z"/><path class="cls-17" d="M33.25.96c.14.16.32.76.41.81.07.04.92-.05,1.69.35.4.21.8.88,1.1,1.05.17.1,4.29,1.16,1.22,1.45.49.35.98.7,1.51.99,2.97,1.64,1,6.5,1.63,8.66.03.12,1.06,1,1.28,1.28l-.81,5.11c3,2.59,2.52,1.16-.12,2.73-.95.57-1.61,1.3-2.44,2.15.08-5.71,2.03-19.86-4.42-22.09.49,1.01.96,2.03,1.16,3.14,1.2,6.48-.05,32.93-.35,41.5,1.97,1.4,1.6-.42,3.14-.52.56.73,1.09,1.59,1.98,1.86,1.7.53,3.94-.55,4.88-2.03,3.36-5.24,2.17-14.88,3.84-19.18.11-.28.87-1.59,1.16-2.15.02-.03.5-.37.58-.52-.63-1.2-1.36-2.44-1.63-3.78-.09-.44-.17-.83-.12-1.28.08.32,1.18,2.31,1.63,2.56.59,1.75-.16-3.18,0-4.82.05-.51.33-1.45.58-1.92.36-.67.7-.77,1.16-1.28,1.15-.42.44-.98,0-1.05l-.12-.7c.11.07.65.06,1.34,1.28,5.16-1.01,4.12,3.87,4.36,5.52.02.12,1.33.88-.35,1.86-.43,2.21-1.89,3.08-1.39,3.55.23.22,1.33.65,1.39.7,1.1.85.62,1.18.93,1.69.16.25,1.24.65,1.28,1.05.04.46-.68.65-.7.7-.08.21.79,2.69.58,4.53,2.25,1.63.2,1.51.12,1.63-.1.15-.24,3.03-.35,3.6-.49,2.67-1.76,2.44.7,4.53-.63.54-1.62-.62-1.98.23-.75,1.81-.13,5.06-1.16,5.23l-.58,4.18,1.28,1.51c-2.3-.14-1.67.65-2.91,2.32-.57.77-1.23,1.49-1.86,2.21.41.47.88.58,1.28,1.1-.43-.06-.84-.11-1.28-.12-3.18-.05-.52,2.3-4.77,2.27l.46,3.72,1.98,1.22c-.04.05.23.06-.12.46l-1.92-.81c-.11.09-.33,2.38-.29,2.79.07.64.47,1.07.81,1.57.08.52-.13.72-.12.76-1.19.15-.48,1.48-.12,2.15l-1.16-.58c.09.68-1.28,3.41-1.28,3.6,0,.15,1.79,2.86-.06.29-.83,1.65-2.3,1.99-2.15,4.01-.6.38-1.28.58-1.86.99-1.81,1.26-3.5,2.6-5.75,3.02,6.87,0,6.56.57,12.03-2.67,1.16-.69,2.23-1.51,3.37-2.21.18-.11.35-.24.52-.35.41.18-2.82,3.64-3.78,4.42-.63.51-1.3.98-1.92,1.51-.25.02-.51-.03-.76,0-3.67.39-15.42.06-19.65-.23l2.32-.17c.27-.45.18-3.82.23-4.59.24-3.57.57-7.12.81-10.69.31-4.5.5-9,.93-13.48.2-2.04,0-4.81,1.28-6.51.4-.54.76-.81,1.39-1.05-.34.83-.7,2.33-.81,3.2-.59,4.37-.49,19.05-.58,24.94-.04,2.83-.21,5.66-.17,8.49.07.05,1.18-.06,1.28-.12,1.06-.65,3.09-11.42,3.31-13.19.63-4.97.95-10.43,0-15.34-.02-.1-.19.02-.23-.17-.53-2.65-1.09-5.48-2.32-8.02,1.12-.13,2.17.48,3.02,1.16.67.54,1.89,2.09,2.32,2.85,1.26,2.19,2.66,7.82,2.09,4.3-.41-2.57-2.34-6.22-4.53-7.73-1.39-.95-2.94-1.16-4.42-.23-.04-.13-.13-.14-.12-.35.02-.23.59-.69-.99-.23-.32.09-1.95,1.07-2.15,1.28l-1.16-.64c.12-2.86-.12-5.69-.23-8.54-.07-1.82-.23-3.64-.23-5.46-.07-2.16,0-12.86-.23-13.66-.04-.12-.6-.49-.7-.76.1-2.21.23-4.42.35-6.63.42-2.2.91-10.68,1.86-11.97.54-.73,1.59-.94,2.44-.93-.5,2.32-.52,4.92-1.28,7.27-1.04,7.7-.76,21.17-.23,29.12.11,1.67.67,8.54,1.05,9.59.26.72.53.29,1.98-.41.36-.18.86-.03,1.16-.41.35-8.75,1.38-31.77.46-39.06-.37-2.96-.96-3.87-2.67-6.1-.18-.23-.36-.44-.58-.64.6-.41,1.54-1.42,2.21-.64Z"/><path class="cls-3" d="M49.52,47.58c1.29.53,3.06-4.19,3.37-5.52,1.15-4.98-.05-10.23,1.39-15.17,2.33,3.33,1.71,10.73.93,14.59-.44,2.16-2.52,9.14-3.6,10.81-1.64,2.52-8.3,6.76-7.67.7,2.58-.83,4.53-2.94,5.58-5.41Z"/><path class="cls-5" d="M54.29,26.88c-1.45,4.94-.24,10.19-1.39,15.17-.31,1.34-2.08,6.05-3.37,5.52,2.48-5.79,1.8-15.43,2.67-21.16.32.2.91-.19,1.28-.35.28.26.6.51.81.81Z"/><path class="cls-8" d="M41.09,59.78c.57,1.72.99,3.59,1.1,5.41.28,4.43-.24,14.6-3.78,17.84,2.3-7.47,3.6-15.44,2.67-23.25Z"/><path class="cls-7" d="M36.85,50.95l-.12-.58c2.2,1.51,4.12,5.16,4.53,7.73.57,3.52-.84-2.12-2.09-4.3-.44-.76-1.65-2.31-2.32-2.85Z"/><path class="cls-2" d="M52.2,21.54c1.1-1.06,1.26-3.99,1.39-5.58,1.3-.84,2.13,1.53,2.21,2.5.24,2.75-1.51,4.68-3.66,6.1-.12-.09.04-2.67.06-3.02Z"/><path class="cls-3" d="M53.59,15.96c-.13,1.59-.3,4.52-1.39,5.58.07-1.19.39-4.93,1.39-5.58Z"/><path class="cls-1" d="M50.1,26.07h-.12c-.43-1.22-1.45-3.3-.93-4.3.26,1.34,1,2.58,1.63,3.78-.08.15-.56.49-.58.52Z"/><path class="cls-6" d="M36.73,50.37l.12.58c-.85-.68-1.9-1.29-3.02-1.16-.41.05-.44.22-.46.23-.63.23-.99.51-1.39,1.05l-.23-.23c.13-.13.52-.66.58-.7,1.48-.93,3.03-.72,4.42.23Z"/><path class="cls-8" d="M53.47,26.07c-.37.16-.96.55-1.28.35.31-2.02.31-1.27,1.28-.35Z"/><path class="cls-15" d="M52.31,15.03c-.46.51-.8.6-1.16,1.28l-.23-.58c.13-.13.15-.24.35-.29l-.23-.06c.71-.37,1.09-.28,1.28-.35Z"/><path class="cls-2" d="M27.78,59.9c-.13,4.08.3,8.14.35,12.21.04,3.44-.36,6.9,0,10.35-.19.13-2.35,1.39-2.44,1.22-.27-4.98-.61-9.96-.93-14.94-.06-.93-.28-1.93-.46-2.85-.08-1.47.16-7.74.35-9.13.92.43,1.92,2.55,3.14,3.14Z"/><path class="cls-5" d="M7.09,29.09c-1.76,3.99-1.45,7.38-.93,11.57.85,6.88,3.29,17.65,8.25,22.73-.85,1.74-1.01,1.41-2.21.35-2.75-2.43-4.83-8.12-5.81-11.62-1.24-4.45-1.82-9.04-2.44-13.6-.12-2.89-.82-3.47.35-6.57.46-1.23,1.61-2.27,1.05-2.62.02,0,.1-.27.23-.23.5,0,1.01-.05,1.51,0Z"/><path class="cls-3" d="M22.2,67.92c.06,3.69,1.64,7.08,1.98,10.69-.22-.81-1.9-6.39-2.09-6.68-.06-.09-.17-.2-.29-.17-.3.26-.41.62-.64.93-.8-.94-2.15-2.2-3.14-2.91,1.68-.8-4.6-3.77-5.81-6.04,1.2,1.06,1.36,1.39,2.21-.35,2.08,2.13,5.04,3.52,7.79,4.53Z"/><path class="cls-2" d="M27.78,59.9c-1.22-.58-2.21-2.71-3.14-3.14.3-2.15.58-1.06,1.28-1.8.07-.07.75-1.48.93-1.8.07.57,1.39.49,1.51.76-.22,1.98-.52,4-.58,5.99Z"/><path class="cls-3" d="M25.57,42.58c-.49.58-.88,2.71-1.51,3.37-1.12-3.28-1.63-6.69-2.09-10.11.13-.03.22-.23.35-.06.23.3,2.31,5.88,3.25,6.8Z"/><path class="cls-17" d="M25.81,1.89c.26.04.47.35.7.46-.25.23-.77,1.23-1.05,1.63-2.49,3.6-3.94,6.85-5,11.1-.04,2.26.48,4.49.58,6.74.25,5.66.1,7.89.93,14.01.47,3.42.97,6.83,2.09,10.11.27.79.89,2.61,1.28,3.2.94,1.42,2.5,1.65,2.44,2.38-.29.54-.62,1.09-.93,1.63-.18.32-.86,1.73-.93,1.8-.7.75-.98-.34-1.28,1.8-.19,1.39-.43,7.66-.35,9.13.18.91.41,1.92.46,2.85-.87-.19-1.72-.51-2.56-.81-2.75-1.02-5.71-2.41-7.79-4.53-4.96-5.07-7.4-15.85-8.25-22.73-.52-4.19-.83-7.57.93-11.57l.12-.23c.59-.15,2.98-1.95,3.31-1.86.37.1.05,1.61,1.74.81-.32,1.55.41.66,1.45,1.98.13.17.22.81.7,1.05.16.66.3,1.32.46,1.98,1.23,4.99,1.28,11.17,3.95,16.86.24.52,3.87,6.91,4.53,4.71.14-.48-2.95-8.08-3.02-9.42-.06-1.11.47-.11.35-1.92-.19-3.02-.95-6.95-3.49-8.83.05-.19-.08-.93.17-1.05.32-.15,1.04.73,1.57.93.44,1.12,1.56-.39,1.63-.87.04-.27-.63-4.55-.7-5.46-.04-1.01.12-1.16.12-1.22-.09-2.04.15-4.42-.23-6.57-.26-.35-.35-.05-.46-.06-.23-.02-.93.04-.99,0-.11-.08-.05-.86-.06-1.05l1.1-.46c.6,2.79.13-.13.06-1.28-.02-.31-.1-.6-.12-1.16-.03-1.55.19-3.16.58-4.65.16-.6.34-1.17.7-1.69l-1.63-.35c.42-.18.71-.46,1.05-.76.77-.67,1.36-1.45,2.32-1.74.34-.27.49-1.03.7-1.39.66-1.19.66-1.44.7-1.51.4-.7,1.2-2.11,2.09-1.98Z"/><path class="cls-12" d="M15,52.46v.12c-.11.79-.28,1.49,0,2.27l-.35-.06c-1.33-3.36-2.29-6.77-3.49-10.17-.03-.09-.16-.06-.23-.06-.53-2.72-.96-5.62-1.39-8.37.11-.01.27.05.35-.06.22-.31-.56-6.68-1.05-7.5.75-.54,1.47,1.82,1.63,2.38,1.18,4.14,2.03,15.65,4.53,21.45Z"/><path class="cls-3" d="M21.39,58.62c.29.38,1.29,2.35,2.44,3.37-.86,2.94-1.3,1.59-4.42-.81,1.34-.95-.25-1.61-1.05-2.62-1.44-1.82-2.73-3.71-3.37-5.99v-.12c1.6,2.21,3.18,4.39,5.87,5.35.1.34.32.55.52.81Z"/><path class="cls-11" d="M19.41,61.18c-1.92-1.47-2.64-1.77-4.18-3.84.54-.34-.23-1.66-.58-2.56l.35.06c-.28-.78-.11-1.47,0-2.27.64,2.27,1.93,4.17,3.37,5.99.8,1.01,2.39,1.66,1.05,2.62Z"/><path class="cls-8" d="M14.65,54.78c.35.9,1.12,2.22.58,2.56-2.91-3.88-3.4-8.17-4.3-12.79.08,0,.2-.03.23.06,1.2,3.4,2.16,6.81,3.49,10.17Z"/><path class="cls-13" d="M9.53,36.18c-.25-1.6-.68-3.2-.81-4.82-.05-.61-.27-2.45.12-2.73.49.81,1.27,7.19,1.05,7.5-.08.11-.24.05-.35.06Z"/><path class="cls-4" d="M23.83,61.99c-1.16-1.02-2.15-2.99-2.44-3.37l2.79,1.45.12.46c-.67.75-.4,1.24-.46,1.45Z"/><path class="cls-1" d="M19.99,26.54c-.15.02-.14-.29-.12-.58.09-1.16-.22-.99-.23-1.05-.21-1.61-.1-3.37-.35-5,.11,0,.2-.29.46.06.38,2.15.14,4.53.23,6.57Z"/><path class="cls-8" d="M19.41,17.12c.07,1.15.54,4.07-.06,1.28l-1.1.46c-.02-.84.43-1.18,1.16-1.74Z"/><path class="cls-17" d="M47.2,27.93c-.43.43-1.06-.05-1.74,2.09-.74,2.32-.97,8.85-1.51,10.06-.18.4-.34.27-.35.29-.22-.89.58-6.04.46-6.34-.12-.3-.79-.14-1.05-.17.04-.27-.03-.6,0-.87.07-.17.66-.28.93-.41.09-.04.42.13.7-.29.23-2.79.74-4.93,3.6-5.87-.1.56-.67,1.13-1.05,1.51Z"/><path class="cls-17" d="M39.18,38.86l1.98.76c0,.19-1.76.75-1.98,1.22-.56.24-.3-1.41-.23-1.92.01-.1.23-.05.23-.06Z"/><path class="cls-17" d="M40.11,31.65c0-.06-.23-.26-.12-1.1.13-1.04.34-.94.35-.99,1.88.37.85,1.41-.23,2.09Z"/><path class="cls-17" d="M41.62,45.25c-.07-.2-.71-.91-.7-.99.02-.11,1.09-.6,1.28-.76,0,.02.19-.02.12.29-.11.43-.67,1.38-.7,1.45Z"/><path class="cls-17" d="M19.65,24.91c0,.06.32-.11.23,1.05-2.45.29-2.79-.6-.23-1.05Z"/><path class="cls-17" d="M20.58,78.73c1.99,3.72,3.8,5.27,3.95,5.58,1.19,2.45-.54,1.76-2.15,1.74l.17-.23c.1-.02.81-.3.81-.41-3.92-2.65-2.5-1.94-2.21-2.96.38-.45-.53-.41-.81-1.1-.07-.16-.1-1.39-.46-2.21-1.54,1.32-.56-.28-.7-2.73.57.7.97,1.54,1.39,2.32Z"/><path class="cls-8" d="M6.39,52.11c.98,3.5,3.06,9.2,5.81,11.62,1.21,2.28,7.49,5.24,5.81,6.04-1.09-.79-2.45-1.3-3.55-2.09-4.75-3.43-6.08-6.31-8.31-11.62-.45-1.49-.69-3.03-1.05-4.53.91.19.64-.26,1.28.58Z"/><path class="cls-3" d="M20.58,78.73c-.42-.79-.83-1.63-1.39-2.32-.01-.27-.08-.65-.12-.93.59-.87,1.34-1.62,1.98-2.44.35,1.9.42,3.93-.46,5.7Z"/><path class="cls-14" d="M24.18,78.62c.18.64,1.34,4.91,1.28,5.17-.04.17-.7.51-.93.52-.15-.31-1.96-1.86-3.95-5.58.89-1.77.81-3.8.46-5.7.01-.01,0-.18.12-.35.23-.31.34-.67.64-.93.12-.03.23.09.29.17.2.29,1.87,5.87,2.09,6.68Z"/><path class="cls-8" d="M3.95,38.51c.62,4.56,1.2,9.16,2.44,13.6-.63-.84-.37-.39-1.28-.58-.41-1.74-.94-3.48-1.28-5.23-.41-2.13-1.07-6.39-1.28-8.49l1.39.7Z"/><path class="cls-5" d="M5.11,51.53c.35,1.51.59,3.05,1.05,4.53-1.3-3.09-2.57-6.35-2.32-9.76.34,1.75.87,3.49,1.28,5.23Z"/><path class="cls-16" d="M5.35,29.33c.56.34-.58,1.39-1.05,2.62-1.17,3.1-.46,3.68-.35,6.57l-1.39-.7c-.54-5.49.07-5.02,1.63-8.49.35-.04.88.06,1.16,0Z"/><path class="cls-10" d="M5.58,29.09c-.13-.03-.22.23-.23.23-.28.06-.81-.04-1.16,0,.18-.41.23-.33.23-.35.31.14.83.11,1.16.12Z"/><path class="cls-16" d="M47.43,28.16c-.81.52-1.08,1.97-1.98,1.86.68-2.14,1.31-1.66,1.74-2.09l.23.23Z"/></g></svg>