<?xml version="1.0" encoding="UTF-8"?><svg id="Ebene_2" xmlns="http://www.w3.org/2000/svg" xmlns:xlink="http://www.w3.org/1999/xlink" viewBox="0 0 112.63 73.6"><defs><style>.cls-1{fill:url(#Unbenannter_Verlauf_4);}.cls-1,.cls-2,.cls-3,.cls-4,.cls-5,.cls-6,.cls-7,.cls-8,.cls-9,.cls-10,.cls-11,.cls-12,.cls-13,.cls-14,.cls-15{stroke-width:0px;}.cls-2{fill:#6f4f33;}.cls-3{fill:#262620;}.cls-4{fill:#322920;}.cls-5{fill:#2f3030;}.cls-6{fill:#101114;}.cls-7{fill:#d8c297;}.cls-8{fill:#bdb0a3;}.cls-9{fill:#b5a478;}.cls-10{fill:#9c8457;}.cls-11{fill:#b4966a;}.cls-12{fill:#66553a;}.cls-13{fill:#e3dfda;}.cls-14{fill:#f0d5ad;}.cls-15{fill:#676958;}</style><linearGradient id="Unbenannter_Verlauf_4" x1="75.3" y1="31" x2="60.2" y2="37.65" gradientUnits="userSpaceOnUse"><stop offset="0" stop-color="#0c0e12"/><stop offset="1" stop-color="#32281f"/></linearGradient></defs><g id="Ebene_1-2"><path class="cls-6" d="M57.18.15c.14.06,1.92,2.24,1.98,2.38.16.4,0,1.66.23,2.15-1.78-.65-2.16-2.93-1.98.12l-.58-.23c-.06-.56-.12-1.48-.23-1.98-.04-.19-.62-.48-.7-1.28-.08-.82.01-1.45,1.05-1.28.09.01.14.08.23.12Z"/><path class="cls-14" d="M17.55,51.75c.06.27-.1.27.29.46,4.98.08,9.96.09,14.93.12,3.76.02,7.52-.03,11.27,0,5.21.04,10.42-.03,15.63,0,1.33.25,2.66.32,4.01.35,1.95.04,3.91-.04,5.87,0,.48.01,1.49.34,1.98.35,3.03.07,6.09,0,9.12,0,1.89,0,7.52.16,8.02.12l.12.81s.07.19-.17.35c-23.82.24-47.65.12-71.48,0-.51,1.71-2.73.73-3.08-.23-.03-.09-.01-.22-.12-.35.16,0,.15-.65.12-1.16,1.23.26.49-.68.58-1.16.1-.49,1.17-1.8,1.51-2.67.06-.15.19-.2.23-.35.45.25.99-.21,1.05-.23,1.42-.53,1.56-1.19,2.44-2.44-.19,1.61-2.66,4.44-2.32,6.04Z"/><path class="cls-14" d="M56.6,2.59c.12.49.18,1.42.23,1.98.07.65.04,1.41.23,2.03-.36.54-.85.96-1.28,1.45-1.71,1.97-6.21,6.59-8.37,8.83-1.14,1.19-3.42,3.06-3.95,4.42-1.72,1.83-4.92,5.14-6.28,6.86-2.09,2.65-2.15,2.82,1.05,5.93-1.34-.07-4.3-.86-4.65-2.44-.08-.35.05-1.06,0-1.51.02,0-.02-.1.35-.23.82-.3,1.34-1.15,1.98-1.69.05-.34-.12-.27-.12-.29.05-.48-.18-2.02.29-2.21.16-.06,1.68.33,1.8-2.21,0-.08,0-.16,0-.23,1.18.67,1.98-1.3,2.09-2.21.02-.15-.02-.31,0-.46.65-.22,1.49-1.32,1.98-1.92,0,0-.16-.12-.12-.17.27-.33.32-.43.35-.46.32-.4,2.06-1.77,1.51-2.09.17-.04.91-.82,1.16-1.05.72-.64,1.23-1.38,1.86-2.09.29-.33.54-.72.81-1.05.4-.47.77-.93,1.16-1.39,2.01-2.39,3.82-4.93,6.16-7.03.07-.4-.23-.27-.23-.29,0-.04.08-.17.12-.81l1.86.35Z"/><path class="cls-9" d="M80.66,29.9c.47.04.33.11.35.12-.61-.09.49,1.85.58,1.92.42.31.92.14,1.39.17.02.44-.01.89,0,1.34,1.66,1.18,2.98,2.58,4.42,4.01.12.12.23.23.35.35.5.5,1.03,1,1.51,1.51,2.02,2.12,3.05,3.24,4.88,5.58.37.47,1.11,1.97,1.63,2.21-.51.35-.08,1.9-.23,2.15-.08.13-.67-.12-.58.52-5.23-5.84-9.44-12.58-15.11-18.01-.01-.1-.37-.18-.23-1.86.34.02.7-.03,1.05,0Z"/><path class="cls-9" d="M68.11,15.25c.51-.02.24.25.58.23.41,1.32-.34,2.39,1.51,2.09,0,.11.22,1.2.12,2.15l.23.06c.27.28,1.12.02,1.51.12.3.07.15.08.35.23l-.12,1.92c.29.34,1.18.11,1.98.17,0,0-.04.1.12.12-.1,3.56,1.65,2.31,1.86,2.61.24.34-.83,2.67,1.69,2.61.34.15.09.87.17,1.05l-.93.58c-3.83-4.59-7.86-9.04-11.74-13.6-.06-.32,1.84-.32,2.67-.35Z"/><path class="cls-14" d="M59.39,4.68c.05.02-.01.34.93.35.1.32,1.41,2.07,1.51,2.15.13.1.14-.1.23-.06.01,0-.05.2.06.23.05.02.94.12.99.12v2.44c-.08,1.09.21,2.49-.23,2.67-.1-.13-.18-.3-.35-.35-1.41-1.65-3.39-4.87-5-5.75-.19-.56-.08-1.12-.12-1.69-.18-3.04.19-.77,1.98-.12Z"/><path class="cls-7" d="M64.27,10.26c.36.2.51.61.81.58.09.79,1.23,1.18,1.51,1.98-.59.15.24.07.29.12.06.05.95,1.21.99,1.28.15.27.22.73.23,1.05-.83.03-2.74.03-2.67.35-.86-1.01-1.71-2-2.56-3.02.45-.18.15-1.58.23-2.67.46-.03.77.13,1.16.35Z"/><path class="cls-3" d="M19.88,45.7c-.88,1.25-1.02,1.91-2.44,2.44.76-1.89,2.04-3.58,3.37-5.11.37-.42.97-.99,1.39-1.39,0,0,.19,0,.12.17-.09.21-2.16,3.49-2.44,3.89Z"/><path class="cls-5" d="M90.19,39.43c.92.39,2.24,2.39,2.91,3.25.07.09.7,1.2,1.28,1.98l-.23.23c-1.83-2.34-2.86-3.46-4.88-5.58.24.03.86.09.93.12Z"/><path class="cls-13" d="M44.86,14.91c.03-.5-.04-1.01,0-1.51.79-.08,1.09.23,1.86-.58-.63.71-1.14,1.45-1.86,2.09Z"/><path class="cls-2" d="M101.93,71.85c-33.61.38-67.27.3-100.88,0,.1-.45.45-.79.7-1.16.33-.49.61-1.03.93-1.51.52-.78,1.09-1.56,1.63-2.32.25-.36.56-.68.81-1.05.43-.62.85-1.25,1.28-1.86.19-.27.39-.54.58-.81,1.03-1.44,1.96-3.01,3.02-4.42,0,0,.03,0,.12-.12.6-.8,1.32-1.56,1.98-2.32.01-.01-.01-.2.12-.35.55-.64,1.37-1.14,1.86-1.86.35.96,2.57,1.95,3.08.23,23.82.12,47.65.24,71.48,0,.24-.16.15-.35.17-.35.79-.06,1.59.04,2.38,0,4.04,5.66,6.88,12.11,10.75,17.9Z"/><path class="cls-6" d="M109.25,69.06c.34.46.55,1.06.93,1.51,1.28,1.5,2.6,1.02,2.44,2.91h-1.86c-.74,0-1.47,0-2.21,0-.58,0-1.19.12-1.74.12-1.42,0-2.87-.12-4.3-.12-1.08,0-2.17,0-3.25,0-.77,0-1.55,0-2.32,0-.89,0-1.78,0-2.67,0-.7,0-1.39,0-2.09,0-.89,0-1.78,0-2.67,0-1.47,0-2.94,0-4.42,0-.97,0-1.94,0-2.91,0-.74,0-1.47,0-2.21,0-.66,0-1.32,0-1.98,0s-1.32,0-1.98,0h-8.25c-.85,0-1.7,0-2.56,0-.77,0-1.55,0-2.32,0-.81,0-1.63,0-2.44,0-.7,0-1.42.12-2.09.12-.79,0-1.63-.12-2.44-.12-.73,0-1.5.12-2.21.12-.91,0-1.86-.12-2.79-.12-.81,0-1.63,0-2.44,0-1.01,0-2.01,0-3.02,0-.81,0-1.63,0-2.44,0-.74,0-1.47,0-2.21,0-.23,0-.46,0-.7,0-.62,0-1.24,0-1.86,0-.66,0-1.32,0-1.98,0s-1.32,0-1.98,0-1.32,0-1.98,0c-.62,0-1.24,0-1.86,0s-1.24,0-1.86,0c-.58,0-1.16,0-1.74,0-.77,0-1.55,0-2.32,0-.74,0-1.47,0-2.21,0-.93,0-1.86,0-2.79,0-.89,0-1.78,0-2.67,0-.93,0-1.86,0-2.79,0-1.16,0-2.32,0-3.49,0-.35,0-.7,0-1.05,0-.81,0-1.63,0-2.44,0-.77,0-1.55.01-2.32,0-.54,0-1.09.02-1.63,0-.71-.02-1.86.08-2.32,0-.18-.03-.74-.15-.81-.29,0-.25,0-.5,0-.76.01-.6.11-.44.12-.46.47.08.76-.12.93-.12,33.61.3,67.27.38,100.88,0,.79,0,7.1.23,7.32-.06-.94-3.09-6.83-11.41-7.21-12.32-.1-.24-.21-.41.12-.52,2.35,3.37,4.66,6.79,7.09,10.11Z"/><path class="cls-4" d="M98.09,53.14c.99,1.13,2.42,3.28,3.37,4.65.25.36.45.8.7,1.16-.32.11-.22.28-.12.52.38.91,6.26,9.22,7.21,12.32-.23.29-6.53.05-7.32.06-3.87-5.79-6.71-12.24-10.75-17.9-.79.04-1.59-.06-2.38,0l-.12-.81c1.19-.09,5.47-1.38,6.97-1.86.9,2.26,2.16,7.15,2.44,1.86Z"/><path class="cls-4" d="M33.59,31.64c.35,1.58,3.31,2.37,4.65,2.44.49.03,1.06.04,1.05-.12,1.26.6,5.07.54,5.11.99q-5.81,8.69-11.62,17.37c-4.98-.03-9.96-.04-14.93-.12-.39-.19-.23-.19-.29-.46,5.17-5.97,9.9-12.29,14.64-18.6.28-.37,1.05-1.33,1.39-1.51Z"/><path class="cls-1" d="M62.88,12.58c.85,1.02,1.7,2.01,2.56,3.02,3.88,4.56,7.91,9.01,11.74,13.6.19.23,1.4,1.69,1.39,1.8-.02.27-.43.25-.46.35-.05.14.77,1,0,1.45-.2.12-3.99,1.17-4.47,1.28-.84.18-6.66.79-6.8,1.1,3.35,5.94,6.46,12.08,10.29,17.72,1.28-.1,3.04.25,3.54-.23v.35c-3.04,0-6.09.07-9.12,0-.48-.01-1.49-.34-1.98-.35-1.95-.04-3.91.04-5.87,0-.03-.56,1.8.06,1.86-.41-2.8-5.58-4.92-11.49-6.62-17.49,2.32-.16,4.66-.43,6.97-.7,3.2-.36,9.31-.45,10.92-3.31l-1.8-1.57c-.53.03,1.08,1.75-1.16,2.56-1.89.68-10.22.91-12.73.93.15-.54,2.31,0,1.28-.41,1.08-.2,9.23-1.17,9.41-1.63-2.44-5.98-5.7-11.53-8.95-17.08-.24-.41-.24-.89-.35-1.34.17.05.24.22.35.35Z"/><path class="cls-4" d="M52.65,34.66c.01.1-.05.3.06.35.28.13,5.43-.18,6.22-.23,1.71,6,3.82,11.91,6.62,17.49-.06.47-1.89-.15-1.86.41-1.35-.02-2.68-.1-4.01-.35-5.21-.03-10.42.04-15.63,0l7.32-17.43,1.28-.23Z"/><path class="cls-6" d="M94.95,49.77c.76.97.67,1.43.7,1.51-1.51.48-5.79,1.77-6.97,1.86-.5.04-6.13-.12-8.02-.12v-.35c-.62-3.43-1.79-13.71-3.14-16.1-1.53-2.7-3.37-1.08-5.81-1.16-.06-.37,6.83-1.18,6.97-2.38,1.15.23,1.27-.26,1.16-1.28,5.67,5.44,9.88,12.17,15.11,18.01Z"/><path class="cls-9" d="M31.85,32.34s.41.42.35.81c-4.75,6.31-9.48,12.62-14.64,18.6-.34-1.61,2.14-4.43,2.32-6.04.28-.41,2.35-3.68,2.44-3.89.07-.17-.12-.16-.12-.17.11-.29.41-.47.46-.81.5-.28.66-.99.7-1.05,1.26-1.9,3.01-3.5,4.59-5.11,1.32-.25,1.27-.77,1.34-.81.38-.24,2.05-.73,1.98-1.39.07,0,.2-.18.58-.12Z"/><path class="cls-4" d="M57.41,4.79c.03.57-.07,1.13.12,1.69,1.61.88,3.59,4.1,5,5.75.11.45.11.93.35,1.34,3.25,5.55,6.51,11.1,8.95,17.08-.19.46-8.33,1.42-9.41,1.63,1.03.41-1.13-.13-1.28.41-1.5.01-3.02-.11-4.53-.12v-.12c.33-.07,1.85.17,1.98-.17.06-.16-.77-2.94-1.05-3.08.6-2.34.95-4.74,1.74-7.03.04-.47-1.4-8.45-1.63-9.36-.43-1.67-1.28-3.16-1.86-4.77.42-.49.92-.91,1.28-1.45-.19-.63-.17-1.38-.23-2.03l.58.23Z"/><path class="cls-4" d="M57.65,12.81c-3.46,6.73-6.53,13.82-11.62,19.52-1.46-.07-3.27.18-4.59-.58-.97-.56-2.04-2.91-3.31-3.49-.34-.16-.58-.13-.93-.12,1.35-1.71,4.56-5.02,6.28-6.86,1.34-1.43,2.92-2.78,3.95-4.42,2.16-2.25,6.66-6.86,8.37-8.83.58,1.61,1.43,3.1,1.86,4.77Z"/><path class="cls-11" d="M43.47,21.3c.53-1.35,2.81-3.23,3.95-4.42-1.03,1.64-2.61,2.99-3.95,4.42Z"/><path class="cls-7" d="M102.51,57.09c-.15.22-.07.16,0,.35l-1.05.35c-.95-1.36-2.38-3.52-3.37-4.65-.02-.02.28-.48-.23-.06-.26,5.39-.6-1.68-.35-3.43,1.17-.33.83.89,1.86,2.61.71,1.19,2.3,3.24,3.14,4.82Z"/><path class="cls-14" d="M96.23,47.1c.33.14.52.1.58.17.08.09.76,2.06.7,2.38-.25,1.75.09,8.82.35,3.43.51-.42.21.04.23.06-.29,5.29-1.54.4-2.44-1.86-.03-.08.06-.54-.7-1.51-.08-.64.5-.39.58-.52.15-.25-.27-1.8.23-2.15.09.04.37-.04.46,0Z"/><path class="cls-6" d="M107.27,61.28c.2.37.2.42.23.81,0,.1-.15,1.65-.23,1.98-1.93-.95-3.99-4.66-4.77-6.62-.07-.19-.15-.12,0-.35.96-.14,4.54,3.78,4.77,4.18Z"/><path class="cls-15" d="M96.23,47.1c-.1-.04-.37.04-.46,0-.51-.24-1.26-1.73-1.63-2.21l.23-.23c.6.81,1.4,1.51,1.86,2.44Z"/><path class="cls-14" d="M78.1,28.62c.05.09,1.27,1.53,1.51,1.28-.14,1.68.22,1.76.23,1.86.11,1.02,0,1.51-1.16,1.28-.22-.05-.39-.12-.58-.23.77-.45-.05-1.32,0-1.45.04-.1.44-.08.46-.35,0-.11-1.2-1.57-1.39-1.8l.93-.58Z"/><path class="cls-8" d="M23.36,39.78c-.03.05-.2.77-.7,1.05.05-.29-.02-.71,0-1.05h.7Z"/><path class="cls-4" d="M78.1,32.8c.2.11.36.19.58.23-.14,1.21-7.03,2.01-6.97,2.38,2.44.08,4.28-1.54,5.81,1.16,1.35,2.39,2.52,12.67,3.14,16.1-.51.48-2.27.13-3.54.23-3.83-5.64-6.93-11.78-10.29-17.72.14-.31,5.96-.92,6.8-1.1.48-.1,4.27-1.16,4.47-1.28Z"/><path class="cls-12" d="M38.12,28.27c-.84-.36-2.11,1.88-1.98,2.5.05.25,2.18,2.32,2.56,2.61.18.14.33.46.58.58.02.16-.55.14-1.05.12-3.2-3.1-3.13-3.28-1.05-5.93.35-.01.59-.04.93.12Z"/><path class="cls-14" d="M38.12,28.27c1.27.57,2.34,2.92,3.31,3.49,1.32.76,3.13.51,4.59.58,3.52.18,7.05.21,10.58.23,1.51,0,3.03.13,4.53.12,2.5-.02,10.83-.25,12.73-.93,2.24-.81.63-2.53,1.16-2.56l1.8,1.57c-1.62,2.86-7.72,2.95-10.92,3.31-.1-.56-1.11-.13-1.57-.12-3.91.14-7.8-.09-11.68.7l-1.28.23c-4.26-.17-8.49-.67-12.67-1.51-.38-.29-2.5-2.37-2.56-2.61-.14-.62,1.14-2.85,1.98-2.5Z"/><path class="cls-9" d="M65.9,34.08c-2.31.26-4.66.54-6.97.7-.79.05-5.94.36-6.22.23-.11-.05-.05-.25-.06-.35,3.88-.79,7.77-.56,11.68-.7.46-.02,1.47-.44,1.57.12Z"/><path class="cls-10" d="M51.37,34.89l-7.32,17.43c-3.76-.03-7.52.02-11.27,0q5.81-8.69,11.62-17.37c-.05-.45-3.86-.39-5.11-.99-.26-.12-.4-.44-.58-.58,4.18.84,8.41,1.34,12.67,1.51Z"/><path class="cls-10" d="M57.53,29.2c-.28,1.09-.71,2.15-.93,3.25v.12c-3.52-.02-7.06-.05-10.58-.23,5.09-5.7,8.16-12.79,11.62-19.52.23.91,1.66,8.88,1.63,9.36-.8,2.29-1.15,4.7-1.74,7.03Z"/><path class="cls-4" d="M56.6,32.45c.22-1.11.65-2.17.93-3.25.28.14,1.1,2.92,1.05,3.08-.12.34-1.65.1-1.98.17Z"/></g></svg>