<?xml version="1.0" encoding="UTF-8"?><svg id="Ebene_2" xmlns="http://www.w3.org/2000/svg" viewBox="0 0 121.55 266.54"><defs><style>.cls-1{fill:#4a312b;}.cls-1,.cls-2,.cls-3,.cls-4,.cls-5,.cls-6,.cls-7,.cls-8,.cls-9,.cls-10,.cls-11,.cls-12,.cls-13,.cls-14,.cls-15,.cls-16,.cls-17,.cls-18{stroke-width:0px;}.cls-2{fill:#835445;}.cls-3{fill:#817e5d;}.cls-4{fill:#9b9372;}.cls-5{fill:#88643d;}.cls-6{fill:#554235;}.cls-7{fill:#6f5a46;}.cls-8{fill:#947551;}.cls-9{fill:#5b3e34;}.cls-10{fill:#846f5c;}.cls-11{fill:#3f362d;}.cls-12{fill:#24201d;}.cls-13{fill:#d0cba8;}.cls-14{fill:#d7d4d3;}.cls-15{fill:#8d7c5a;}.cls-16{fill:#b3b4b6;}.cls-17{fill:#a08b60;}.cls-18{fill:#050606;}</style></defs><g id="Ebene_1-2"><path class="cls-13" d="M65.19,1.33c-7.89-.76-13.83,3.94-16.52,3.33-.24-.05-.59-.75-.64-.77,1.99.59,16.2-6,17.42-3.2.13.29-.27.39-.26.64Z"/><path class="cls-16" d="M111.81,56.41c.47.09,1.18.8,1.79.77-.17,2.19,1.59,4.62-2.05,3.07-.37-1.23-.8-2.4-1.28-3.59.08,0,.17-.51,1.54-.26Z"/><path class="cls-4" d="M97.21,18.5c-5.12-3.19-11.91-3.74-10.5-8.45,3.76,2.48,7.14,5.55,10.5,8.45Z"/><path class="cls-3" d="M65.19,1.33c4.65.45,13.83,3.48,17.03,6.92,2.02-.57,3.06.86,4.48,1.79-1.41,4.71,5.38,5.26,10.5,8.45,3.18,2.75,8.15,5.82,9.22,10.12,2.65.88,3.09,3.94,5.25,5.51,1.3.95,9.65,3.92,9.86,4.74-.67,5.89-2.68,6.14-3.07,9.61-.63-.64-1.98-.46-2.69-.77-.6-.26-5.32-4.69-10.5-1.79-.79-1.31-1.05-2.01-2.43-2.82-.15-.43-.22-1.11-.26-1.15-.3-.34-9.19-3-8.2-1.41-.71-.2-2.86-1.83-6.28-1.28-.31.05-4.57,2.07-5.76,2.56-1.91-.72-4.32-6.19-5.25-5.64l2.43,6.66c-1.7.71-3.36,3.91-6.02-.26-1.51.27-2.15-.52-3.33-1.28-8.48,1.08-8.21-4.76-18.32-3.59-3.77-.33-1.53-6.17-6.4-8.45-.16-.35-.34-.68-.51-1.02-.35-.68-2.25-5.74-3.33-3.84-.88,1.54,5.3,11.65,6.15,13.83v.26c-4.16,7.6-7.3,3.76-7.81,3.84-.76.13-3.44,5.61-14.34,1.28-2.46-.98-3.73-2.72-4.35-2.82-1.99-.32-2.49,1.77-3.71,2.82-2.38.89.29-1.18,1.28-3.46,1.18-2.71,1.91-6.81,3.59-9.22,2.07-2.98,7.4-4.53,10.37-10.12,12.04,4.36,8.38.86-.51-1.54-3.44,7.59-8.67,8.43-10.63,10.63-2.87,3.22-3.23,10.65-6.4,13.96-2.63,1.21-6.6,3.34-8.2,5.76-2.59,3.92-.19,3.66,6.4,4.74l-2.82,2.31c-2.73-.02-5.47-.53-8.2-.64-.54-3.69,4.92-16.12,6.92-18.96C20.85,24.93,34.03,14.44,46.62,3.38c.53-.11.96.37,1.41.51.05.02.4.71.64.77,2.7.61,8.63-4.09,16.52-3.33Z"/><path class="cls-1" d="M97.21,29.77c1.04,1.17,1.77,2.73,3.07,3.71.03.14-.64.36-.77.38-2.43.42-7.83.36-10.89.77-.95-.79-.34-1.71-2.05-3.07-.39-.31-8.47-4.24-8.97-4.35-1.44-.34-7.72-.54-9.73-.51-.06,0-.97.51-1.02.51-2.09.07-4.38-.84-6.4.51.37-4.41,1.11-11.19,2.56-4.87,4.45-1.23,8.97-2.74,13.45-3.84.96-.24,1.82-.8,2.82-1.02.42-.09,1.82-.1,2.18.26,5.31-2.92,8.89.43,10.5,5.38-8.26-6.5,3.69,4.39,5.25,6.15Z"/><path class="cls-8" d="M99.52,33.87c.13-.02.8-.24.77-.38-1.3-.98-2.03-2.54-3.07-3.71-.65-.79,1.57.2,1.67.26,1.25.8,13.51,9.77,9.99,9.73-.57,0-9.79-3.96-9.35-5.89Z"/><path class="cls-5" d="M51.49,9.28c1.25,2.49,1.3,11.26,3.59,9.48,3.43,6.55.16.7-1.28,2.31-2.21-2.7-3.31-8.45-2.31-11.78Z"/><path class="cls-5" d="M61.73,11.84c-.03,1.4,3.38,9.38,3.2,9.86-1.27,3.44-5.09-8.66-3.2-9.86Z"/><path class="cls-5" d="M82.35,41.81c-.9.37-1.93.66-2.82,1.02l-2.43-6.66c.93-.56,3.34,4.92,5.25,5.64Z"/><path class="cls-8" d="M102.85,43.09c-.67-.39-6.79-2.1-8.45-2.56-1-1.59,7.9,1.07,8.2,1.41.04.04.11.72.26,1.15Z"/><path class="cls-5" d="M79.28,17.99c-1,.22-1.86.79-2.82,1.02-1.32-1.48.75-4.31,2.82-1.02Z"/><path class="cls-5" d="M17.55,43.6c-.11.09.42,1.28-2.31.26,3.17-3.31,3.53-10.74,6.4-13.96,1.96-2.2,7.19-3.04,10.63-10.63,8.89,2.4,12.55,5.89.51,1.54-2.97,5.58-8.3,7.14-10.37,10.12-1.67,2.41-2.4,6.51-3.59,9.22-.99,2.28-3.66,4.34-1.28,3.46Z"/><path class="cls-8" d="M44.96,28.23c.18.34.35.67.51,1.02,1.21,2.61,3.96,8.95,2.31,8.97-.85-2.19-7.03-12.3-6.15-13.83l3.33,3.84Z"/><path class="cls-5" d="M51.87,37.71c-1.4.16-2.69.65-4.1.77v-.26c1.65-.02-1.09-6.35-2.31-8.97,4.88,2.29,2.63,8.12,6.4,8.45Z"/><path class="cls-5" d="M44.96,28.23l-3.33-3.84c1.08-1.89,2.98,3.16,3.33,3.84Z"/><path class="cls-1" d="M79.54,42.83c.88-.37,1.91-.66,2.82-1.02,1.2-.49,5.45-2.51,5.76-2.56,3.42-.54,5.56,1.08,6.28,1.28,1.66.46,7.78,2.17,8.45,2.56,1.39.81,1.65,1.51,2.43,2.82,5.18-2.89,9.9,1.53,10.5,1.79.71.31,2.06.13,2.69.77-7.22-.06-3.14,6.98-3.59,7.81-.31.58-1.1-1.4-1.28.9-.61.03-1.33-.68-1.79-.77,1.21-2.14-2.71-.4-2.56-1.15,5.47-3.37,2.08-1.46-2.31-.51-.14.86,2.9.49.51,1.15-7.75-3.13-7.74-1.18-9.09-1.28-.17-.01-2.36-1.15-3.07-1.28-5.39-1.01-10.25-1.1-10.76-1.28-.2-.07-.13-.34-.13-.51l-6.53-.51-8.58,1.79c0-.16-.6-.51-.64-.51-3.55-.5-21.78-.74-27.02-.26,2.78-1.94-4.06.25-5.38.77.12-.6-.27-.57-.9-.51-5.09.47-17.41,3.25-21.52,2.56-.21-.04-.35-.51-.38-.51-6.59-1.08-9-.82-6.4-4.74,1.6-2.42,5.57-4.55,8.2-5.76,2.72,1.03,2.2-.16,2.31-.26,1.22-1.04,1.72-3.14,3.71-2.82.63.1,1.89,1.84,4.35,2.82,10.91,4.33,13.58-1.15,14.34-1.28.51-.09,3.65,3.76,7.81-3.84,1.4-.12,2.69-.61,4.1-.77,10.11-1.17,9.83,4.67,18.32,3.59,1.18.76,1.82,1.55,3.33,1.28,2.66,4.17,4.32.97,6.02.26Z"/><path class="cls-12" d="M107.46,55.9c-1.91.53-3.42.59-5.38.51-2.34-.09-5.56-1.12-8.07-1.02-10.69,7.01-11.17,8.73,0,.51,2.64-.2,5.21.59,7.81.77.88.06,1.86.59,4.74.51,1.16-.03,2.41-.47,3.71-.51.48,1.19.92,2.35,1.28,3.59.18.6.91,1.87.77,2.18-.56.35-1.19.41-1.79.64-4.62,1.78-9.47,3.17-14.22,4.61v.51c2.31.42,6.35.67,6.79,1.54-8.95,1.88-18.21,1.44-27.15,3.33.52-1.61-3.52.3-3.59-.64.86-.7,1.52-1.67,2.31-2.43,2.92-2.81,6.78-4.57,9.86-7.17-4.08,1.55-7.18,4.66-10.63,7.17-.98.71-2.42,1.96-2.56,2.05-.4.24-1.49,1.01-1.92.77-.54-1.1-.53-1.95-.64-3.07-.22-2.21,0-7.57.77-9.61,1.02-2.71,10.84-11.72,2.18-4.48-.85.43-4.8-1.86-4.48,8.2-.95,2.89-.76,9.98-2.31,9.99-.02-.3-.28-.4-.51-.51-.87-.4-1.34-.52-2.31-.51-.62-.44,1.82-1.63,2.31-3.2.43-1.38-.08-2.42,0-3.71.01-.19.9-1.39.38-1.54l-1.67,2.31c-4,1.09-7.98-2.87-9.22-6.4.23-.38.93-1.03,1.28-1.28,4.13-3.03,9.78-2.87,14.47-4.1,3.92-1.03,5.5-3.56,14.73-3.33,0,.17-.07.44.13.51.51.18,5.37.27,10.76,1.28.71.13,2.91,1.27,3.07,1.28,1.36.1,1.34-1.85,9.09,1.28Z"/><path class="cls-17" d="M53.92,58.71s.45-.21.51-.26l.77.51c-.35.25-1.05.9-1.28,1.28-.74,1.21.07,5.97.51,7.56.57,2.04,2.1,4,2.31,4.61.34.99-.34,3.89,2.56,7.56.04.81.26.92.26,1.02-.03.47.02.94,0,1.41-3.21,4.48.97,10.94.51,16.91-1.96,5.04.34,8.39-3.59,12.81.01,2.68-.14,5.42-.51,8.07-.35,2.52-1.22,4.96-1.02,7.56-.44.6-1.5.52-1.79.64-4.14,1.67-8.17,2.51-12.55,3.07-2.36.3-5.06.71-7.43.77-4.95.13,5.27-1.35,4.23-1.79-4.89.23-14.62,1.16-11.27-1.28h-4.35l.64-.77c6-.44,18.74-1.04,23.18-1.79,9.63-1.63,5.32-2.62,7.04-10.63.24-1.12,2.27-5.12,2.82-6.92-.05-8.17,1.45-16.28.77-24.46,5.05-5.31-3.64-7.51-3.59-8.07.03-.29,1.87-.49,2.05-.64.81-.68-1.45-2.66-1.79-3.33-1.09-2.16-1.52-4.24-2.31-6.15-.12-.29-.29-1.79-.77-2.69-1.85-3.5-7.75-5.44-8.2-5.76-.87-.64-1.69-1.35-1.54-2.56,4.61.68,8.28,3.43,10.63,7.43.91-1.15,2.22-3.17,3.2-4.1Z"/><path class="cls-1" d="M110.53,63.07c.92,1.68,5.98,6.7,3.84,7.94-3.76-.21-7.53-1.98-11.27-1.28-.43-.87-4.47-1.12-6.79-1.54v-.51c4.74-1.44,9.59-2.83,14.22-4.61Z"/><path class="cls-9" d="M62.89,103.8c.13,2.55-.31,5.16.26,7.68-.26,1.82-.6,3.65-.51,5.51,1.83,3.12,3.35,7.86,4.87,10.63.27.49.53,1.22.77,1.54-.78.95-1.46,3.4-3.07,3.33-1.37-5.06-3.33-9.91-5.38-14.73.92-4.06,1.36-7.5,1.54-11.66.01-.34-.01-.68,0-1.02l1.54-1.28Z"/><path class="cls-12" d="M36.25,52.82c-2.61,1.02-4.27,2.69-9.22,4.61-.58.23-1.21.42-1.79.64,5.28,1,.28,2.81-3.33.9,3.11-4.54-7.34-2.27-11.27-2.31l2.82-2.31s.17.48.38.51c4.11.69,16.43-2.09,21.52-2.56.63-.06,1.01-.09.9.51Z"/><path class="cls-1" d="M39.32,58.71c.25.27.77.51,1.02.77,2.08,2.14,6.89,6.01,5.64,6.4-.52-.21-1.78-.73-2.05-.77-1.52-.19-10.84-.03-11.27,1.41-.17.58,1.1,2.46.64,2.95-.34.36-5.72.53-9.86,1.54-1.56.38-2.75,1.46-4.1,1.79-.95-2.96-3.44-6.71-1.79-9.61-.22-.55-1.28-.29-2.05-.64-.69-.32-1.67-.58-1.79-.9,4.66-5.14,3.89-.35,8.2-2.69,3.61,1.91,8.61.11,3.33-.9.59-.22,1.21-.41,1.79-.64,1.15.21,6.02-.35,5.38-2.05,2.28.65,6.7,4.71,6.92,3.33Z"/><path class="cls-1" d="M19.34,72.8c-2.94.72-4.36.32-5.38-2.69-.9-2.67-.13-4.64-.26-4.87-.12-.21-3.2,1.26,1.79-2.69.77.35,1.83.09,2.05.64-1.65,2.9.85,6.65,1.79,9.61Z"/><path class="cls-14" d="M71.85,81q-3.33,2.18-6.66,4.35c.1-.28-.1-.98,0-1.15.31-.53,4.71-3.12,5-3.2.41-.12,1.26.12,1.67,0Z"/><path class="cls-18" d="M63.14,66.65c.72-.2.73-.42,1.28-.77-.08,1.29.43,2.34,0,3.71-.49,1.58-2.93,2.76-2.31,3.2-.86,0-1.71.29-2.56.38.44,1.93,2.78,5.37,3.07,6.28.14.42.19.84.26,1.28.13.92.41,2.49-.77,2.82-3.67-.15-1.81,8.68-1.41,11.27.09,0,.33-1.07.38-1.28.23,3.54.37,8.02.26,11.53-.01.34.01.68,0,1.02-6.82,12.81-5.48,10.54.77,23.95.4.89,2.19,2.4,3.07,2.43,1.61.07,2.29-2.38,3.07-3.33.33.43.53.89.9,1.28,1.97.06,5.46-.6,6.79-.51.03,0,.19.5.38.51,6.5.46,12.62,1.36,19.08,2.05-1.11.4-2.57.69-3.71.77-8.52.59-40.51-.1-51.1-.51,2.7-.91,8.53.68,8.71-1.02,1.27-.04,4.41.22,5.25,0,1.03-.27,1.43-2.47,4.35-1.02.19-1.84-9.51-.49-5.51-1.79,3.71-1.21,4.97-.96,7.68,1.67q-2.56-5.19-5.12-10.37c.37-2.65.52-5.39.51-8.07,3.92-4.42,1.63-7.77,3.59-12.81.46-5.97-3.72-12.42-.51-16.91.02-.47-.03-.94,0-1.41.45.24,1.92,1.06,2.05.38-.86-1.38-2.06-8.04-2.69-8.58-2.11-1.83.19,2.91.38,7.17-2.9-3.67-2.22-6.56-2.56-7.56-.21-.61-1.74-2.57-2.31-4.61-.44-1.59-1.25-6.35-.51-7.56,1.24,3.53,5.22,7.5,9.22,6.4Z"/><path class="cls-12" d="M69.29,52.82c-5.5,3.53-9.66,1.2-14.86,5.64-.06.05-.47.21-.51.26-.2-.83.21-3.22,0-3.71-.61-1.39-10.35-1.53-12.04-1.67-.5-.04-.98-.41-1.79-.26.75-.97,1.46-.97,1.54-1.02,5.24-.48,23.47-.24,27.02.26.04,0,.64.35.64.51Z"/><path class="cls-17" d="M84.4,51.54c-9.23-.23-10.81,2.3-14.73,3.33-4.69,1.23-10.34,1.07-14.47,4.1l-.77-.51c5.2-4.43,9.36-2.11,14.86-5.64l8.58-1.79,6.53.51Z"/><path class="cls-5" d="M41.63,52.05c-.08.05-.78.06-1.54,1.02-1.88,2.41-1.02,4.01.26,6.4-.26-.26-.77-.5-1.02-.77-.58-.61-1.35-2.25-2.82-2.95,4.42-3.44-.33-2.07-4.1-.38.64,1.7-4.23,2.26-5.38,2.05,4.95-1.92,6.61-3.59,9.22-4.61,1.32-.51,8.16-2.71,5.38-.77Z"/><path class="cls-15" d="M111.81,56.41c-1.37-.26-1.46.25-1.54.26-1.31.04-2.56.48-3.71.51-2.88.08-3.86-.45-4.74-.51l.26-.26c1.96.08,3.47.02,5.38-.51,2.38-.66-.66-.29-.51-1.15,4.38-.95,7.77-2.86,2.31.51-.15.75,3.78-.98,2.56,1.15Z"/><path class="cls-1" d="M68.52,69.73c.01,2.44-.62,4.6-1.28,6.92-.42,1.46-1.53,1.59,1.54,1.54-1.16.71-2.61-.8-3.07,3.59-1.57.81-2.78,5.71-3.07,7.81-.42,3.04-.4,10.5-.26,13.83,0,.2.49-.01.51.38l-1.54,1.28c.12-3.51-.03-7.99-.26-11.53.76-2.85,1.02-7,1.02-9.99,1.18-.32.9-1.9.77-2.82l2.05-6.92c1.55,0,1.36-7.1,2.31-9.99.06,1.98.36,4.11,1.28,5.89Z"/><path class="cls-2" d="M68.78,69.73h-.26c-.93-1.78-1.22-3.91-1.28-5.89-.32-10.06,3.63-7.76,4.48-8.2,8.66-7.23-1.15,1.77-2.18,4.48-.77,2.04-.99,7.4-.77,9.61Z"/><path class="cls-16" d="M62.12,72.8c.96,0,1.44.11,2.31.51l-1.79,6.15c-.29-.9-2.63-4.34-3.07-6.28.85-.09,1.7-.38,2.56-.38Z"/><path class="cls-14" d="M71.34,72.03c-.5,1.83-2.74,1.6-.26,2.31-.92.98-2.78,3.8-3.84,2.31.66-2.31,1.29-4.48,1.28-6.92h.26c.11,1.12.1,1.98.64,3.07.43.24,1.52-.53,1.92-.77Z"/><path class="cls-11" d="M74.67,69.98c-.79.76-1.44,1.73-2.31,2.43.07.94,4.11-.97,3.59.64-.65.14-2.24,1.2-2.56,1.28-.03,0,.2.14-.51.26-.08.01-.17,0-.26,0-.08,0-1.42-.22-1.54-.26-2.49-.7-.24-.48.26-2.31.14-.09,1.58-1.34,2.56-2.05h.77Z"/><path class="cls-7" d="M102.08,56.41l-.26.26c-2.6-.18-5.17-.97-7.81-.77-11.17,8.22-10.69,6.49,0-.51,2.51-.1,5.73.93,8.07,1.02Z"/><path class="cls-10" d="M74.67,69.98h-.77c3.45-2.51,6.55-5.62,10.63-7.17-3.08,2.61-6.94,4.36-9.86,7.17Z"/><path class="cls-10" d="M64.94,73.83l-2.05,6.92c-.06-.44-.12-.86-.26-1.28l1.79-6.15c.23.11.49.21.51.51Z"/><path class="cls-10" d="M64.42,65.89c-.55.34-.56.57-1.28.77l1.67-2.31c.52.14-.37,1.35-.38,1.54Z"/><path class="cls-12" d="M45.98,65.89c1.07.43,2.57,1.54,3.33,2.56.5.67,1.37,1.69.26,2.56-3-1.36.03.77,3.84,3.84-7.25.6-16.83,4.9-22.54-.13-.09-.47,6.79-4.38,7.3-4.48,3.14-.62,10.16,2.01,2.82-2.31-1.56-.91-5.72-2.24,0-1.54,1.14.14,3.85,1.59,5.12,2.05l-2.18-3.33c.27.03,1.53.56,2.05.77Z"/><path class="cls-18" d="M43.93,65.12l2.18,3.33c-1.28-.46-3.99-1.91-5.12-2.05-5.72-.7-1.56.62,0,1.54,7.34,4.31.32,1.69-2.82,2.31-.51.1-7.4,4.02-7.3,4.48,5.71,5.03,15.3.72,22.54.13.06.05.65-.11,1.28,1.02-.18.15-2.02.35-2.05.64-.05.55,8.64,2.75,3.59,8.07-1.34,1.41-7.9,4.75-9.86,5.12-.91.17-2.42-.93-3.84.51l-.38-.38c.81-3.16,3.75-1.78,3.59-5.89-7.65,1.82-5.41-.41-12.42-4.74-5.24.5-9.66,3.24-15.11,2.31-1.72-3.29.61-2.91,2.69-5.25.22-.25.08-.99.64-1.67.46-.56,2.93-.16,1.92-3.59,4.14-1.01,9.52-1.17,9.86-1.54.46-.49-.81-2.36-.64-2.95.43-1.44,9.76-1.6,11.27-1.41Z"/><path class="cls-14" d="M37.91,78.44c.98-.14,4,.41,5.25.64-2.95,1.24-2.98,3.58-3.71,3.46l-2.95-3.46c-.14-.33,1.23-.62,1.41-.64Z"/><path class="cls-7" d="M49.57,71.01c1.54.7,3.14,1.99,3.33,1.54.34.67,2.6,2.65,1.79,3.33-.63-1.13-1.22-.97-1.28-1.02-3.82-3.07-6.85-5.21-3.84-3.84Z"/><path class="cls-1" d="M53.92,58.71c-.98.93-2.29,2.95-3.2,4.1-2.35-4-6.02-6.75-10.63-7.43.15-1.15,1.38-1.16,1.79-2.05,1.69.13,11.43.27,12.04,1.67.21.49-.2,2.88,0,3.71Z"/><path class="cls-9" d="M53.41,128.9l-.26-.51c.29-.12,1.35-.04,1.79-.64-.2-2.59.67-5.04,1.02-7.56q2.56,5.19,5.12,10.37c-2.72-2.63-3.97-2.87-7.68-1.67Z"/><path class="cls-11" d="M53.41,128.9c-4.01,1.3,5.7-.04,5.51,1.79-2.92-1.45-3.33.76-4.35,1.02-.84.22-3.98-.04-5.25,0-2.86.09-5.86.14-8.71-.26,4.38-.57,8.41-1.41,12.55-3.07l.26.51Z"/><path class="cls-1" d="M50.59,66.4c-2.14-1.12-3.4-3.45-2.82-.51-2.18-2.5-4.58-4.91-6.15-7.94.44.33,6.34,2.26,8.2,5.76.48.9.65,2.4.77,2.69Z"/><path class="cls-2" d="M41.88,53.33c-.42.89-1.64.89-1.79,2.05-.16,1.21.67,1.92,1.54,2.56,1.57,3.03,3.97,5.44,6.15,7.94.63.73,1.31,1.59,1.54,2.56-.76-1.03-2.26-2.14-3.33-2.56,1.26-.39-3.55-4.27-5.64-6.4-1.27-2.39-2.14-3.99-.26-6.4.81-.15,1.3.22,1.79.26Z"/><path class="cls-12" d="M50.59,66.4c.79,1.91,1.21,3.99,2.31,6.15-.19.45-1.79-.84-3.33-1.54,1.11-.87.24-1.89-.26-2.56-.23-.97-.9-1.83-1.54-2.56-.59-2.94.68-.6,2.82.51Z"/><path class="cls-6" d="M59.56,81c0-.1-.22-.22-.26-1.02-.2-4.26-2.49-9.01-.38-7.17.63.55,1.83,7.21,2.69,8.58-.13.67-1.6-.15-2.05-.38Z"/><path class="cls-12" d="M39.32,58.71c-.22,1.38-4.63-2.68-6.92-3.33,3.77-1.69,8.52-3.06,4.1.38,1.47.7,2.24,2.33,2.82,2.95Z"/><path class="cls-18" d="M114.37,71.01c-1.55.9-5.79,1.82-7.56,1.79-.11,0-.65-.76-.77-.77-5.15-.41-5.29,5.72-10.25,2.82-.14,5-1.79,2.82-2.82,3.33-.6.29-5.94,6.63-11.53,1.28-6.02-.57-6.68,1.17-7.17,1.28-.82.18-1.41-.06-2.43.26-.4.12-1.26-.12-1.67,0-.29.08-4.68,2.67-5,3.2-.1.18.1.87,0,1.15-1.25,3.55-.82,7.4-2.31,10.89.59,2.55.55,5.11.77,7.68,0,.08.76,1.21.77,1.28.14,1.87-.99,4.22-1.28,6.28-.56-2.52-.13-5.14-.26-7.68-.02-.4-.5-.18-.51-.38-.14-3.33-.17-10.79.26-13.83.29-2.11,1.51-7.01,3.07-7.81.91-.47,2.81-.69,3.84-1.28,8.18.07,11.02-7.83,3.84-6.15.33-.08,1.91-1.14,2.56-1.28,8.94-1.89,18.21-1.45,27.15-3.33,3.74-.7,7.51,1.07,11.27,1.28Z"/><path class="cls-16" d="M82.23,75.36c.51-.02,4.19.66,4.23.9-2.5,3.96-5.44,2.55-9.73,2.56,1.74-2.1,2.4-3.35,5.51-3.46Z"/><path class="cls-14" d="M69.55,80.49c-1.03.59-2.93.81-3.84,1.28.46-4.39,1.92-2.88,3.07-3.59,1.03-.63,2.65-2.65,3.84-3.59.08,0,.17.01.26,0-.52,1.98-3.11,4.45-4.87,5.51-.11.39,1.38.38,1.54.38Z"/><path class="cls-17" d="M65.19,132.49c-.89-.04-2.68-1.55-3.07-2.43-6.25-13.41-7.59-11.14-.77-23.95-.18,4.16-.62,7.59-1.54,11.66,2.05,4.82,4.01,9.67,5.38,14.73Z"/><path class="cls-8" d="M62.12,83.56c0,2.99-.26,7.14-1.02,9.99-.06.21-.3,1.28-.38,1.28-.4-2.59-2.26-11.42,1.41-11.27Z"/><path class="cls-12" d="M72.62,74.6c-1.19.94-2.81,2.96-3.84,3.59-3.07.05-1.95-.07-1.54-1.54,1.06,1.49,2.92-1.32,3.84-2.31.11.03,1.46.26,1.54.26Z"/><path class="cls-13" d="M56.35,265.21c7.89.76,13.83-3.94,16.52-3.33.24.05.59.75.64.77-1.99-.59-16.2,6-17.42,3.2-.13-.29.27-.39.26-.64Z"/><path class="cls-16" d="M9.73,210.13c-.47-.09-1.18-.8-1.79-.77.17-2.19-1.59-4.62,2.05-3.07.37,1.23.8,2.4,1.28,3.59-.08,0-.17.51-1.54.26Z"/><path class="cls-4" d="M24.33,248.05c5.12,3.19,11.91,3.74,10.5,8.45-3.76-2.48-7.14-5.55-10.5-8.45Z"/><path class="cls-3" d="M56.35,265.21c-4.65-.45-13.83-3.48-17.03-6.92-2.02.57-3.06-.86-4.48-1.79,1.41-4.71-5.38-5.26-10.5-8.45-3.18-2.75-8.15-5.82-9.22-10.12-2.65-.88-3.09-3.94-5.25-5.51-1.3-.95-9.65-3.92-9.86-4.74.67-5.89,2.68-6.14,3.07-9.61.63.64,1.98.46,2.69.77.6.26,5.32,4.69,10.5,1.79.79,1.31,1.05,2.01,2.43,2.82.15.43.22,1.11.26,1.15.3.34,9.19,3,8.2,1.41.71.2,2.86,1.83,6.28,1.28.31-.05,4.57-2.07,5.76-2.56,1.91.72,4.32,6.19,5.25,5.64l-2.43-6.66c1.7-.71,3.36-3.91,6.02.26,1.51-.27,2.15.52,3.33,1.28,8.48-1.08,8.21,4.76,18.32,3.59,3.77.33,1.53,6.17,6.4,8.45.16.35.34.68.51,1.02.35.68,2.25,5.74,3.33,3.84.88-1.54-5.3-11.65-6.15-13.83v-.26c4.16-7.6,7.3-3.76,7.81-3.84.76-.13,3.44-5.61,14.34-1.28,2.46.98,3.73,2.72,4.35,2.82,1.99.32,2.49-1.77,3.71-2.82,2.38-.89-.29,1.18-1.28,3.46-1.18,2.71-1.91,6.81-3.59,9.22-2.07,2.98-7.4,4.53-10.37,10.12-12.04-4.36-8.38-.86.51,1.54,3.44-7.59,8.67-8.43,10.63-10.63,2.87-3.22,3.23-10.65,6.4-13.96,2.63-1.21,6.6-3.34,8.2-5.76,2.59-3.92.19-3.66-6.4-4.74l2.82-2.31c2.73.02,5.47.53,8.2.64.54,3.69-4.92,16.12-6.92,18.96-11.5,12.14-24.68,22.63-37.27,33.68-.53.11-.96-.37-1.41-.51-.05-.02-.4-.71-.64-.77-2.7-.61-8.63,4.09-16.52,3.33Z"/><path class="cls-1" d="M24.33,236.77c-1.04-1.17-1.77-2.73-3.07-3.71-.03-.14.64-.36.77-.38,2.43-.42,7.83-.36,10.89-.77.95.79.34,1.71,2.05,3.07.39.31,8.47,4.24,8.97,4.35,1.44.34,7.72.54,9.73.51.06,0,.97-.51,1.02-.51,2.09-.07,4.38.84,6.4-.51-.37,4.41-1.11,11.19-2.56,4.87-4.45,1.23-8.97,2.74-13.45,3.84-.96.24-1.82.8-2.82,1.02-.42.09-1.82.1-2.18-.26-5.31,2.92-8.89-.43-10.5-5.38,8.26,6.5-3.69-4.39-5.25-6.15Z"/><path class="cls-8" d="M22.03,232.68c-.13.02-.8.24-.77.38,1.3.98,2.03,2.54,3.07,3.71.65.79-1.57-.2-1.67-.26-1.25-.8-13.51-9.77-9.99-9.73.57,0,9.79,3.96,9.35,5.89Z"/><path class="cls-5" d="M70.06,257.27c-1.25-2.49-1.3-11.26-3.59-9.48-3.43-6.55-.16-.7,1.28-2.31,2.21,2.7,3.31,8.45,2.31,11.78Z"/><path class="cls-5" d="M59.81,254.71c.03-1.4-3.38-9.38-3.2-9.86,1.27-3.44,5.09,8.66,3.2,9.86Z"/><path class="cls-5" d="M39.19,224.74c.9-.37,1.93-.66,2.82-1.02l2.43,6.66c-.93.56-3.34-4.92-5.25-5.64Z"/><path class="cls-8" d="M18.7,223.45c.67.39,6.79,2.1,8.45,2.56,1,1.59-7.9-1.07-8.2-1.41-.04-.04-.11-.72-.26-1.15Z"/><path class="cls-5" d="M42.27,248.56c1-.22,1.86-.79,2.82-1.02,1.32,1.48-.75,4.31-2.82,1.02Z"/><path class="cls-5" d="M104,222.94c.11-.09-.42-1.28,2.31-.26-3.17,3.31-3.53,10.74-6.4,13.96-1.96,2.2-7.19,3.04-10.63,10.63-8.89-2.4-12.55-5.89-.51-1.54,2.97-5.58,8.3-7.14,10.37-10.12,1.67-2.41,2.4-6.51,3.59-9.22.99-2.28,3.66-4.34,1.28-3.46Z"/><path class="cls-8" d="M76.59,238.31c-.18-.34-.35-.67-.51-1.02-1.21-2.61-3.96-8.95-2.31-8.97.85,2.19,7.03,12.3,6.15,13.83l-3.33-3.84Z"/><path class="cls-5" d="M69.67,228.83c1.4-.16,2.69-.65,4.1-.77v.26c-1.65.02,1.09,6.35,2.31,8.97-4.88-2.29-2.63-8.12-6.4-8.45Z"/><path class="cls-5" d="M76.59,238.31l3.33,3.84c-1.08,1.89-2.98-3.16-3.33-3.84Z"/><path class="cls-1" d="M42.01,223.71c-.88.37-1.91.66-2.82,1.02-1.2.49-5.45,2.51-5.76,2.56-3.42.54-5.56-1.08-6.28-1.28-1.66-.46-7.78-2.17-8.45-2.56-1.39-.81-1.65-1.51-2.43-2.82-5.18,2.89-9.9-1.53-10.5-1.79-.71-.31-2.06-.13-2.69-.77,7.22.06,3.14-6.98,3.59-7.81.31-.58,1.1,1.4,1.28-.9.61-.03,1.33.68,1.79.77-1.21,2.14,2.71.4,2.56,1.15-5.47,3.37-2.08,1.46,2.31.51.14-.86-2.9-.49-.51-1.15,7.75,3.13,7.74,1.18,9.09,1.28.17.01,2.36,1.15,3.07,1.28,5.39,1.01,10.25,1.1,10.76,1.28.2.07.13.34.13.51l6.53.51q4.29-.9,8.58-1.79c0,.16.6.51.64.51,3.55.5,21.78.74,27.02.26-2.78,1.94,4.06-.25,5.38-.77-.12.6.27.57.9.51,5.09-.47,17.41-3.25,21.52-2.56.21.04.35.51.38.51,6.59,1.08,9,.82,6.4,4.74-1.6,2.42-5.57,4.55-8.2,5.76-2.72-1.03-2.2.16-2.31.26-1.22,1.04-1.72,3.14-3.71,2.82-.63-.1-1.89-1.84-4.35-2.82-10.91-4.33-13.58,1.15-14.34,1.28-.51.09-3.65-3.76-7.81,3.84-1.4.12-2.69.61-4.1.77-10.11,1.17-9.83-4.67-18.32-3.59-1.18-.76-1.82-1.55-3.33-1.28-2.66-4.17-4.32-.97-6.02-.26Z"/><path class="cls-12" d="M14.09,210.65c1.91-.53,3.42-.59,5.38-.51,2.34.09,5.56,1.12,8.07,1.02,10.69-7.01,11.17-8.73,0-.51-2.64.2-5.21-.59-7.81-.77-.88-.06-1.86-.59-4.74-.51-1.16.03-2.41.47-3.71.51-.48-1.19-.92-2.35-1.28-3.59-.18-.6-.91-1.87-.77-2.18.56-.35,1.19-.41,1.79-.64,4.62-1.78,9.47-3.17,14.22-4.61v-.51c-2.31-.42-6.35-.67-6.79-1.54,8.95-1.88,18.21-1.44,27.15-3.33-.52,1.61,3.52-.3,3.59.64-.86.7-1.52,1.67-2.31,2.43-2.92,2.81-6.78,4.57-9.86,7.17,4.08-1.55,7.18-4.66,10.63-7.17.98-.71,2.42-1.96,2.56-2.05.4-.24,1.49-1.01,1.92-.77.54,1.1.53,1.95.64,3.07.22,2.21,0,7.57-.77,9.61-1.02,2.71-10.84,11.72-2.18,4.48.85-.43,4.8,1.86,4.48-8.2.95-2.89.76-9.98,2.31-9.99.02.3.28.4.51.51.87.4,1.34.52,2.31.51.62.44-1.82,1.63-2.31,3.2-.43,1.38.08,2.42,0,3.71-.01.19-.9,1.39-.38,1.54l1.67-2.31c4-1.09,7.98,2.87,9.22,6.4-.23.38-.93,1.03-1.28,1.28-4.13,3.03-9.78,2.87-14.47,4.1-3.92,1.03-5.5,3.56-14.73,3.33,0-.17.07-.44-.13-.51-.51-.18-5.37-.27-10.76-1.28-.71-.13-2.91-1.27-3.07-1.28-1.36-.1-1.34,1.85-9.09-1.28Z"/><path class="cls-17" d="M67.63,207.83s-.45.21-.51.26l-.77-.51c.35-.25,1.05-.9,1.28-1.28.74-1.21-.07-5.97-.51-7.56-.57-2.04-2.1-4-2.31-4.61-.34-.99.34-3.89-2.56-7.56-.04-.81-.26-.92-.26-1.02.03-.47-.02-.94,0-1.41,3.21-4.48-.97-10.94-.51-16.91,1.96-5.04-.34-8.39,3.59-12.81-.01-2.68.14-5.42.51-8.07.35-2.52,1.22-4.96,1.02-7.56.44-.6,1.5-.52,1.79-.64,4.14-1.67,8.17-2.51,12.55-3.07,2.36-.3,5.06-.71,7.43-.77,4.95-.13-5.27,1.35-4.23,1.79,4.89-.23,14.62-1.16,11.27,1.28h4.35q-.32.38-.64.77c-6,.44-18.74,1.04-23.18,1.79-9.63,1.63-5.32,2.62-7.04,10.63-.24,1.12-2.27,5.12-2.82,6.92.05,8.17-1.45,16.28-.77,24.46-5.05,5.31,3.64,7.51,3.59,8.07-.03.29-1.87.49-2.05.64-.81.68,1.45,2.66,1.79,3.33,1.09,2.16,1.52,4.24,2.31,6.15.12.29.29,1.79.77,2.69,1.85,3.5,7.75,5.44,8.2,5.76.87.64,1.69,1.35,1.54,2.56-4.61-.68-8.28-3.43-10.63-7.43-.91,1.15-2.22,3.17-3.2,4.1Z"/><path class="cls-1" d="M11.01,203.47c-.92-1.68-5.98-6.7-3.84-7.94,3.76.21,7.53,1.98,11.27,1.28.43.87,4.47,1.12,6.79,1.54v.51c-4.74,1.44-9.59,2.83-14.22,4.61Z"/><path class="cls-9" d="M58.66,162.75c-.13-2.55.31-5.16-.26-7.68.26-1.82.6-3.65.51-5.51-1.83-3.12-3.35-7.86-4.87-10.63-.27-.49-.53-1.22-.77-1.54.78-.95,1.46-3.4,3.07-3.33,1.37,5.06,3.33,9.91,5.38,14.73-.92,4.06-1.36,7.5-1.54,11.66-.01.34.01.68,0,1.02l-1.54,1.28Z"/><path class="cls-12" d="M85.3,213.72c2.61-1.02,4.27-2.69,9.22-4.61.58-.23,1.21-.42,1.79-.64-5.28-1-.28-2.81,3.33-.9-3.11,4.54,7.34,2.27,11.27,2.31l-2.82,2.31s-.17-.48-.38-.51c-4.11-.69-16.43,2.09-21.52,2.56-.63.06-1.01.09-.9-.51Z"/><path class="cls-1" d="M82.23,207.83c-.25-.27-.77-.51-1.02-.77-2.08-2.14-6.89-6.01-5.64-6.4.52.21,1.78.73,2.05.77,1.52.19,10.84.03,11.27-1.41.17-.58-1.1-2.46-.64-2.95.34-.36,5.72-.53,9.86-1.54,1.56-.38,2.75-1.46,4.1-1.79.95,2.96,3.44,6.71,1.79,9.61.22.55,1.28.29,2.05.64.69.32,1.67.58,1.79.9-4.66,5.14-3.89.35-8.2,2.69-3.61-1.91-8.61-.11-3.33.9-.59.22-1.21.41-1.79.64-1.15-.21-6.02.35-5.38,2.05-2.28-.65-6.7-4.71-6.92-3.33Z"/><path class="cls-1" d="M102.21,193.74c2.94-.72,4.36-.32,5.38,2.69.9,2.67.13,4.64.26,4.87.12.21,3.2-1.26-1.79,2.69-.77-.35-1.83-.09-2.05-.64,1.65-2.9-.85-6.65-1.79-9.61Z"/><path class="cls-14" d="M49.69,185.54q3.33-2.18,6.66-4.35c-.1.28.1.98,0,1.15-.31.53-4.71,3.12-5,3.2-.41.12-1.26-.12-1.67,0Z"/><path class="cls-18" d="M58.4,199.89c-.72.2-.73.42-1.28.77.08-1.29-.43-2.34,0-3.71.49-1.58,2.93-2.76,2.31-3.2.86,0,1.71-.29,2.56-.38-.44-1.93-2.78-5.37-3.07-6.28-.14-.42-.19-.84-.26-1.28-.13-.92-.41-2.49.77-2.82,3.67.15,1.81-8.68,1.41-11.27-.09,0-.33,1.07-.38,1.28-.23-3.54-.37-8.02-.26-11.53.01-.34-.01-.68,0-1.02,6.82-12.81,5.48-10.54-.77-23.95-.4-.89-2.19-2.4-3.07-2.43-1.61-.07-2.29,2.38-3.07,3.33-.33-.43-.53-.89-.9-1.28-1.97-.06-5.46.6-6.79.51-.03,0-.19-.5-.38-.51-6.5-.46-12.62-1.36-19.08-2.05,1.11-.4,2.57-.69,3.71-.77,8.52-.59,40.51.1,51.1.51-2.7.91-8.53-.68-8.71,1.02-1.27.04-4.41-.22-5.25,0-1.03.27-1.43,2.47-4.35,1.02-.19,1.84,9.51.49,5.51,1.79-3.71,1.21-4.97.96-7.68-1.67q2.56,5.19,5.12,10.37c-.37,2.65-.52,5.39-.51,8.07-3.92,4.42-1.63,7.77-3.59,12.81-.46,5.97,3.72,12.42.51,16.91-.02.47.03.94,0,1.41-.45-.24-1.92-1.06-2.05-.38.86,1.38,2.06,8.04,2.69,8.58,2.11,1.83-.19-2.91-.38-7.17,2.9,3.67,2.22,6.56,2.56,7.56.21.61,1.74,2.57,2.31,4.61.44,1.59,1.25,6.35.51,7.56-1.24-3.53-5.22-7.5-9.22-6.4Z"/><path class="cls-12" d="M52.26,213.72c5.5-3.53,9.66-1.2,14.86-5.64.06-.05.47-.21.51-.26.2.83-.21,3.22,0,3.71.61,1.39,10.35,1.53,12.04,1.67.5.04.98.41,1.79.26-.75.97-1.46.97-1.54,1.02-5.24.48-23.47.24-27.02-.26-.04,0-.64-.35-.64-.51Z"/><path class="cls-17" d="M37.14,215c9.23.23,10.81-2.3,14.73-3.33,4.69-1.23,10.34-1.07,14.47-4.1l.77.51c-5.2,4.43-9.36,2.11-14.86,5.64q-4.29.9-8.58,1.79l-6.53-.51Z"/><path class="cls-5" d="M79.92,214.49c.08-.05.78-.06,1.54-1.02,1.88-2.41,1.02-4.01-.26-6.4.26.26.77.5,1.02.77.58.61,1.35,2.25,2.82,2.95-4.42,3.44.33,2.07,4.1.38-.64-1.7,4.23-2.26,5.38-2.05-4.95,1.92-6.61,3.59-9.22,4.61-1.32.51-8.16,2.71-5.38.77Z"/><path class="cls-15" d="M9.73,210.13c1.37.26,1.46-.25,1.54-.26,1.31-.04,2.56-.48,3.71-.51,2.88-.08,3.86.45,4.74.51l-.26.26c-1.96-.08-3.47-.02-5.38.51-2.38.66.66.29.51,1.15-4.38.95-7.77,2.86-2.31-.51.15-.75-3.78.98-2.56-1.15Z"/><path class="cls-1" d="M53.02,196.81c-.01-2.44.62-4.6,1.28-6.92.42-1.46,1.53-1.59-1.54-1.54,1.16-.71,2.61.8,3.07-3.59,1.57-.81,2.78-5.71,3.07-7.81.42-3.04.4-10.5.26-13.83,0-.2-.49.01-.51-.38l1.54-1.28c-.12,3.51.03,7.99.26,11.53-.76,2.85-1.02,7-1.02,9.99-1.18.32-.9,1.9-.77,2.82l-2.05,6.92c-1.55,0-1.36,7.1-2.31,9.99-.06-1.98-.36-4.11-1.28-5.89Z"/><path class="cls-2" d="M52.77,196.81h.26c.93,1.78,1.22,3.91,1.28,5.89.32,10.06-3.63,7.76-4.48,8.2-8.66,7.23,1.15-1.77,2.18-4.48.77-2.04.99-7.4.77-9.61Z"/><path class="cls-16" d="M59.43,193.74c-.96,0-1.44-.11-2.31-.51l1.79-6.15c.29.9,2.63,4.34,3.07,6.28-.85.09-1.7.38-2.56.38Z"/><path class="cls-14" d="M50.21,194.51c.5-1.83,2.74-1.6.26-2.31.92-.98,2.78-3.8,3.84-2.31-.66,2.31-1.29,4.48-1.28,6.92h-.26c-.11-1.12-.1-1.98-.64-3.07-.43-.24-1.52.53-1.92.77Z"/><path class="cls-11" d="M46.88,196.56c.79-.76,1.44-1.73,2.31-2.43-.07-.94-4.11.97-3.59-.64.65-.14,2.24-1.2,2.56-1.28.03,0-.2-.14.51-.26.08-.01.17,0,.26,0,.08,0,1.42.22,1.54.26,2.49.7.24.48-.26,2.31-.14.09-1.58,1.34-2.56,2.05h-.77Z"/><path class="cls-7" d="M19.47,210.13l.26-.26c2.6.18,5.17.97,7.81.77,11.17-8.22,10.69-6.49,0,.51-2.51.1-5.73-.93-8.07-1.02Z"/><path class="cls-10" d="M46.88,196.56h.77c-3.45,2.51-6.55,5.62-10.63,7.17,3.08-2.61,6.94-4.36,9.86-7.17Z"/><path class="cls-10" d="M56.61,192.72l2.05-6.92c.06.44.12.86.26,1.28l-1.79,6.15c-.23-.11-.49-.21-.51-.51Z"/><path class="cls-10" d="M57.12,200.66c.55-.34.56-.57,1.28-.77l-1.67,2.31c-.52-.14.37-1.35.38-1.54Z"/><path class="cls-12" d="M75.57,200.66c-1.07-.43-2.57-1.54-3.33-2.56-.5-.67-1.37-1.69-.26-2.56,3,1.36-.03-.77-3.84-3.84,7.25-.6,16.83-4.9,22.54.13.09.47-6.79,4.38-7.3,4.48-3.14.62-10.16-2.01-2.82,2.31,1.56.91,5.72,2.24,0,1.54-1.14-.14-3.85-1.59-5.12-2.05l2.18,3.33c-.27-.03-1.53-.56-2.05-.77Z"/><path class="cls-18" d="M77.62,201.42l-2.18-3.33c1.28.46,3.99,1.91,5.12,2.05,5.72.7,1.56-.62,0-1.54-7.34-4.31-.32-1.69,2.82-2.31.51-.1,7.4-4.02,7.3-4.48-5.71-5.03-15.3-.72-22.54-.13-.06-.05-.65.11-1.28-1.02.18-.15,2.02-.35,2.05-.64.05-.55-8.64-2.75-3.59-8.07,1.34-1.41,7.9-4.75,9.86-5.12.91-.17,2.42.93,3.84-.51l.38.38c-.81,3.16-3.75,1.78-3.59,5.89,7.65-1.82,5.41.41,12.42,4.74,5.24-.5,9.66-3.24,15.11-2.31,1.72,3.29-.61,2.91-2.69,5.25-.22.25-.08.99-.64,1.67-.46.56-2.93.16-1.92,3.59-4.14,1.01-9.52,1.17-9.86,1.54-.46.49.81,2.36.64,2.95-.43,1.44-9.76,1.6-11.27,1.41Z"/><path class="cls-14" d="M83.63,188.1c-.98.14-4-.41-5.25-.64,2.95-1.24,2.98-3.58,3.71-3.46l2.95,3.46c.14.33-1.23.62-1.41.64Z"/><path class="cls-7" d="M71.98,195.53c-1.54-.7-3.14-1.99-3.33-1.54-.34-.67-2.6-2.65-1.79-3.33.63,1.13,1.22.97,1.28,1.02,3.82,3.07,6.85,5.21,3.84,3.84Z"/><path class="cls-1" d="M67.63,207.83c.98-.93,2.29-2.95,3.2-4.1,2.35,4,6.02,6.75,10.63,7.43-.15,1.15-1.38,1.16-1.79,2.05-1.69-.13-11.43-.27-12.04-1.67-.21-.49.2-2.88,0-3.71Z"/><path class="cls-9" d="M68.14,137.64l.26.51c-.29.12-1.35.04-1.79.64.2,2.59-.67,5.04-1.02,7.56q-2.56-5.19-5.12-10.37c2.72,2.63,3.97,2.87,7.68,1.67Z"/><path class="cls-11" d="M68.14,137.64c4.01-1.3-5.7.04-5.51-1.79,2.92,1.45,3.33-.76,4.35-1.02.84-.22,3.98.04,5.25,0,2.86-.09,5.86-.14,8.71.26-4.38.57-8.41,1.41-12.55,3.07l-.26-.51Z"/><path class="cls-1" d="M70.96,200.14c2.14,1.12,3.4,3.45,2.82.51,2.18,2.5,4.58,4.91,6.15,7.94-.44-.33-6.34-2.26-8.2-5.76-.48-.9-.65-2.4-.77-2.69Z"/><path class="cls-2" d="M79.66,213.21c.42-.89,1.64-.89,1.79-2.05.16-1.21-.67-1.92-1.54-2.56-1.57-3.03-3.97-5.44-6.15-7.94-.63-.73-1.31-1.59-1.54-2.56.76,1.03,2.26,2.14,3.33,2.56-1.26.39,3.55,4.27,5.64,6.4,1.27,2.39,2.14,3.99.26,6.4-.81.15-1.3-.22-1.79-.26Z"/><path class="cls-12" d="M70.96,200.14c-.79-1.91-1.21-3.99-2.31-6.15.19-.45,1.79.84,3.33,1.54-1.11.87-.24,1.89.26,2.56.23.97.9,1.83,1.54,2.56.59,2.94-.68.6-2.82-.51Z"/><path class="cls-6" d="M61.99,185.54c0,.1.22.22.26,1.02.2,4.26,2.49,9.01.38,7.17-.63-.55-1.83-7.21-2.69-8.58.13-.67,1.6.15,2.05.38Z"/><path class="cls-12" d="M82.23,207.83c.22-1.38,4.63,2.68,6.92,3.33-3.77,1.69-8.52,3.06-4.1-.38-1.47-.7-2.24-2.33-2.82-2.95Z"/><path class="cls-18" d="M7.17,195.53c1.55-.9,5.79-1.82,7.56-1.79.11,0,.65.76.77.77,5.15.41,5.29-5.72,10.25-2.82.14-5,1.79-2.82,2.82-3.33.6-.29,5.94-6.63,11.53-1.28,6.02.57,6.68-1.17,7.17-1.28.82-.18,1.41.06,2.43-.26.4-.12,1.26.12,1.67,0,.29-.08,4.68-2.67,5-3.2.1-.18-.1-.87,0-1.15,1.25-3.55.82-7.4,2.31-10.89-.59-2.55-.55-5.11-.77-7.68,0-.08-.76-1.21-.77-1.28-.14-1.87.99-4.22,1.28-6.28.56,2.52.13,5.14.26,7.68.02.4.5.18.51.38.14,3.33.17,10.79-.26,13.83-.29,2.11-1.51,7.01-3.07,7.81-.91.47-2.81.69-3.84,1.28-8.18-.07-11.02,7.83-3.84,6.15-.33.08-1.91,1.14-2.56,1.28-8.94,1.89-18.21,1.45-27.15,3.33-3.74.7-7.51-1.07-11.27-1.28Z"/><path class="cls-16" d="M39.32,191.18c-.51.02-4.19-.66-4.23-.9,2.5-3.96,5.44-2.55,9.73-2.56-1.74,2.1-2.4,3.35-5.51,3.46Z"/><path class="cls-14" d="M52,186.06c1.03-.59,2.93-.81,3.84-1.28-.46,4.39-1.92,2.88-3.07,3.59-1.03.63-2.65,2.65-3.84,3.59-.08,0-.17-.01-.26,0,.52-1.98,3.11-4.45,4.87-5.51.11-.39-1.38-.38-1.54-.38Z"/><path class="cls-17" d="M56.35,134.06c.89.04,2.68,1.55,3.07,2.43,6.25,13.41,7.59,11.14.77,23.95.18-4.16.62-7.59,1.54-11.66-2.05-4.82-4.01-9.67-5.38-14.73Z"/><path class="cls-8" d="M59.43,182.98c0-2.99.26-7.14,1.02-9.99.06-.21.3-1.28.38-1.28.4,2.59,2.26,11.42-1.41,11.27Z"/><path class="cls-12" d="M48.93,191.95c1.19-.94,2.81-2.96,3.84-3.59,3.07-.05,1.95.07,1.54,1.54-1.06-1.49-2.92,1.32-3.84,2.31-.11-.03-1.46-.26-1.54-.26Z"/></g></svg>